<?xml version="1.0" encoding="UTF-8" standalone="no"?>
<svg xmlns="http://www.w3.org/2000/svg"
     xmlns:xlink="http://www.w3.org/1999/xlink"
     width="576px" height="432px" viewBox="0 0 576 432">
<title>gl2ps_renderer figure</title>
<desc>
Creator: GL2PS 1.3.8, (C) 1999-2012 C. Geuzaine
For: Octave
CreationDate: Tue Aug 29 18:18:59 2017
</desc>
<defs>
</defs>
<polygon fill="#ffffff" points="0,0 576,0 576,432 0,432"/>
<g shape-rendering="crispEdges">
<polygon fill="#ffffff" points="0,432 576,432 576,0 0,0"/>
<clipPath id="cp00576432">
  <polygon points="0,432 576,432 576,0 0,0"/>
</clipPath>
<g clip-path="url(#cp00576432)">
<polygon fill="#ffffff" points="74.88,384.48 521.28,384.48 74.88,32.3999"/>
<polygon fill="#ffffff" points="521.28,384.48 521.28,32.3999 74.88,32.3999"/>
<polyline fill="none" stroke="#262626" stroke-width="0.5" points="74.88,384.48 74.88,380.015"/>
<polyline fill="none" stroke="#262626" stroke-width="0.5" points="164.16,384.48 164.16,380.015"/>
<polyline fill="none" stroke="#262626" stroke-width="0.5" points="253.44,384.48 253.44,380.015"/>
<polyline fill="none" stroke="#262626" stroke-width="0.5" points="342.72,384.48 342.72,380.015"/>
<polyline fill="none" stroke="#262626" stroke-width="0.5" points="432,384.48 432,380.015"/>
<polyline fill="none" stroke="#262626" stroke-width="0.5" points="521.28,384.48 521.28,380.015"/>
<text fill="#262626" x="74.88" y="389.481" font-size="10" text-anchor="middle" baseline-shift="-10" font-family="Helvetica">0</text>
<text fill="#262626" x="164.16" y="389.481" font-size="10" text-anchor="middle" baseline-shift="-10" font-family="Helvetica">0.2</text>
<text fill="#262626" x="253.44" y="389.481" font-size="10" text-anchor="middle" baseline-shift="-10" font-family="Helvetica">0.4</text>
<text fill="#262626" x="342.72" y="389.481" font-size="10" text-anchor="middle" baseline-shift="-10" font-family="Helvetica">0.6</text>
<text fill="#262626" x="432" y="389.481" font-size="10" text-anchor="middle" baseline-shift="-10" font-family="Helvetica">0.8</text>
<text fill="#262626" x="521.28" y="389.481" font-size="10" text-anchor="middle" baseline-shift="-10" font-family="Helvetica">1</text>
<polyline fill="none" stroke="#262626" stroke-width="0.5" points="74.88,345.36 79.348,345.36"/>
<polyline fill="none" stroke="#262626" stroke-width="0.5" points="74.88,267.12 79.348,267.12"/>
<polyline fill="none" stroke="#262626" stroke-width="0.5" points="74.88,188.88 79.348,188.88"/>
<polyline fill="none" stroke="#262626" stroke-width="0.5" points="74.88,110.64 79.348,110.64"/>
<polyline fill="none" stroke="#262626" stroke-width="0.5" points="74.88,32.3999 79.348,32.3999"/>
<text fill="#262626" x="69.8755" y="345.36" font-size="10" text-anchor="end" baseline-shift="-5" font-family="Helvetica">0.6</text>
<text fill="#262626" x="69.8755" y="267.12" font-size="10" text-anchor="end" baseline-shift="-5" font-family="Helvetica">0.7</text>
<text fill="#262626" x="69.8755" y="188.88" font-size="10" text-anchor="end" baseline-shift="-5" font-family="Helvetica">0.8</text>
<text fill="#262626" x="69.8755" y="110.64" font-size="10" text-anchor="end" baseline-shift="-5" font-family="Helvetica">0.9</text>
<text fill="#262626" x="69.8755" y="32.4" font-size="10" text-anchor="end" baseline-shift="-5" font-family="Helvetica">1</text>
<polyline fill="none" stroke="#262626" stroke-width="0.5" stroke-dasharray="16,0" points="74.88,384.48 521.28,384.48"/>
<polyline fill="none" stroke="#262626" stroke-width="0.5" stroke-dasharray="16,0" points="74.88,384.48 74.88,32.3999"/>
<polyline fill="none" stroke="#ff0000" stroke-width="0.5" points="256.143,284.787 255.882,286.597 255.123,288.259 253.926,289.641 252.388,290.629 250.634,291.144 248.806,291.144 247.052,290.629 245.514,289.641 244.317,288.259 243.558,286.597 243.297,284.787 243.558,282.978 244.317,281.315 245.514,279.933 247.052,278.945 248.806,278.43 250.634,278.43 252.388,278.945 253.926,279.933 255.123,281.315 255.882,282.978 256.143,284.787 256.143,284.787"/>
<polyline fill="none" stroke="#ff0000" stroke-width="0.5" points="271.023,259.548 270.762,261.358 270.003,263.021 268.806,264.402 267.268,265.391 265.514,265.906 263.686,265.906 261.932,265.391 260.394,264.402 259.197,263.021 258.438,261.358 258.177,259.548 258.438,257.739 259.197,256.076 260.394,254.695 261.932,253.706 263.686,253.191 265.514,253.191 267.268,253.706 268.806,254.695 270.003,256.076 270.762,257.739 271.023,259.548 271.023,259.548"/>
<polyline fill="none" stroke="#ff0000" stroke-width="0.5" points="285.903,310.026 285.642,311.835 284.883,313.498 283.686,314.88 282.148,315.868 280.394,316.383 278.566,316.383 276.812,315.868 275.274,314.88 274.077,313.498 273.318,311.835 273.057,310.026 273.318,308.216 274.077,306.553 275.274,305.172 276.812,304.184 278.566,303.669 280.394,303.669 282.148,304.184 283.686,305.172 284.883,306.553 285.642,308.216 285.903,310.026 285.903,310.026"/>
<polyline fill="none" stroke="#ff0000" stroke-width="0.5" points="285.903,259.548 285.642,261.358 284.883,263.021 283.686,264.402 282.148,265.391 280.394,265.906 278.566,265.906 276.812,265.391 275.274,264.402 274.077,263.021 273.318,261.358 273.057,259.548 273.318,257.739 274.077,256.076 275.274,254.695 276.812,253.706 278.566,253.191 280.394,253.191 282.148,253.706 283.686,254.695 284.883,256.076 285.642,257.739 285.903,259.548 285.903,259.548"/>
<polyline fill="none" stroke="#ff0000" stroke-width="0.5" points="285.903,234.31 285.642,236.119 284.883,237.782 283.686,239.164 282.148,240.152 280.394,240.667 278.566,240.667 276.812,240.152 275.274,239.164 274.077,237.782 273.318,236.119 273.057,234.31 273.318,232.5 274.077,230.837 275.274,229.456 276.812,228.467 278.566,227.952 280.394,227.952 282.148,228.467 283.686,229.456 284.883,230.837 285.642,232.5 285.903,234.31 285.903,234.31"/>
<polyline fill="none" stroke="#ff0000" stroke-width="0.5" points="300.783,310.026 300.522,311.835 299.763,313.498 298.566,314.88 297.028,315.868 295.274,316.383 293.446,316.383 291.692,315.868 290.154,314.88 288.957,313.498 288.198,311.835 287.937,310.026 288.198,308.216 288.957,306.553 290.154,305.172 291.692,304.184 293.446,303.669 295.274,303.669 297.028,304.184 298.566,305.172 299.763,306.553 300.522,308.216 300.783,310.026 300.783,310.026"/>
<polyline fill="none" stroke="#ff0000" stroke-width="0.5" points="300.783,284.787 300.522,286.597 299.763,288.259 298.566,289.641 297.028,290.629 295.274,291.144 293.446,291.144 291.692,290.629 290.154,289.641 288.957,288.259 288.198,286.597 287.937,284.787 288.198,282.978 288.957,281.315 290.154,279.933 291.692,278.945 293.446,278.43 295.274,278.43 297.028,278.945 298.566,279.933 299.763,281.315 300.522,282.978 300.783,284.787 300.783,284.787"/>
<polyline fill="none" stroke="#ff0000" stroke-width="0.5" points="300.783,234.31 300.522,236.119 299.763,237.782 298.566,239.164 297.028,240.152 295.274,240.667 293.446,240.667 291.692,240.152 290.154,239.164 288.957,237.782 288.198,236.119 287.937,234.31 288.198,232.5 288.957,230.837 290.154,229.456 291.692,228.467 293.446,227.952 295.274,227.952 297.028,228.467 298.566,229.456 299.763,230.837 300.522,232.5 300.783,234.31 300.783,234.31"/>
<polyline fill="none" stroke="#ff0000" stroke-width="0.5" points="300.783,209.071 300.522,210.88 299.763,212.543 298.566,213.925 297.028,214.913 295.274,215.428 293.446,215.428 291.692,214.913 290.154,213.925 288.957,212.543 288.198,210.88 287.937,209.071 288.198,207.262 288.957,205.599 290.154,204.217 291.692,203.229 293.446,202.714 295.274,202.714 297.028,203.229 298.566,204.217 299.763,205.599 300.522,207.262 300.783,209.071 300.783,209.071"/>
<polyline fill="none" stroke="#ff0000" stroke-width="0.5" points="315.663,284.787 315.402,286.597 314.643,288.259 313.446,289.641 311.908,290.629 310.154,291.144 308.326,291.144 306.572,290.629 305.034,289.641 303.837,288.259 303.078,286.597 302.817,284.787 303.078,282.978 303.837,281.315 305.034,279.933 306.572,278.945 308.326,278.43 310.154,278.43 311.908,278.945 313.446,279.933 314.643,281.315 315.402,282.978 315.663,284.787 315.663,284.787"/>
<polyline fill="none" stroke="#ff0000" stroke-width="0.5" points="315.663,259.548 315.402,261.358 314.643,263.021 313.446,264.402 311.908,265.391 310.154,265.906 308.326,265.906 306.572,265.391 305.034,264.402 303.837,263.021 303.078,261.358 302.817,259.548 303.078,257.739 303.837,256.076 305.034,254.695 306.572,253.706 308.326,253.191 310.154,253.191 311.908,253.706 313.446,254.695 314.643,256.076 315.402,257.739 315.663,259.548 315.663,259.548"/>
<polyline fill="none" stroke="#ff0000" stroke-width="0.5" points="315.663,209.071 315.402,210.88 314.643,212.543 313.446,213.925 311.908,214.913 310.154,215.428 308.326,215.428 306.572,214.913 305.034,213.925 303.837,212.543 303.078,210.88 302.817,209.071 303.078,207.262 303.837,205.599 305.034,204.217 306.572,203.229 308.326,202.714 310.154,202.714 311.908,203.229 313.446,204.217 314.643,205.599 315.402,207.262 315.663,209.071 315.663,209.071"/>
<polyline fill="none" stroke="#ff0000" stroke-width="0.5" points="315.663,183.832 315.402,185.642 314.643,187.305 313.446,188.686 311.908,189.674 310.154,190.19 308.326,190.19 306.572,189.674 305.034,188.686 303.837,187.305 303.078,185.642 302.817,183.832 303.078,182.023 303.837,180.36 305.034,178.978 306.572,177.99 308.326,177.475 310.154,177.475 311.908,177.99 313.446,178.978 314.643,180.36 315.402,182.023 315.663,183.832 315.663,183.832"/>
<polyline fill="none" stroke="#ff0000" stroke-width="0.5" points="330.543,259.548 330.282,261.358 329.523,263.021 328.326,264.402 326.788,265.391 325.034,265.906 323.206,265.906 321.452,265.391 319.914,264.402 318.717,263.021 317.958,261.358 317.697,259.548 317.958,257.739 318.717,256.076 319.914,254.695 321.452,253.706 323.206,253.191 325.034,253.191 326.788,253.706 328.326,254.695 329.523,256.076 330.282,257.739 330.543,259.548 330.543,259.548"/>
<polyline fill="none" stroke="#ff0000" stroke-width="0.5" points="330.543,234.31 330.282,236.119 329.523,237.782 328.326,239.164 326.788,240.152 325.034,240.667 323.206,240.667 321.452,240.152 319.914,239.164 318.717,237.782 317.958,236.119 317.697,234.31 317.958,232.5 318.717,230.837 319.914,229.456 321.452,228.467 323.206,227.952 325.034,227.952 326.788,228.467 328.326,229.456 329.523,230.837 330.282,232.5 330.543,234.31 330.543,234.31"/>
<polyline fill="none" stroke="#ff0000" stroke-width="0.5" points="330.543,183.832 330.282,185.642 329.523,187.305 328.326,188.686 326.788,189.674 325.034,190.19 323.206,190.19 321.452,189.674 319.914,188.686 318.717,187.305 317.958,185.642 317.697,183.832 317.958,182.023 318.717,180.36 319.914,178.978 321.452,177.99 323.206,177.475 325.034,177.475 326.788,177.99 328.326,178.978 329.523,180.36 330.282,182.023 330.543,183.832 330.543,183.832"/>
<polyline fill="none" stroke="#ff0000" stroke-width="0.5" points="330.543,158.594 330.282,160.403 329.523,162.066 328.326,163.447 326.788,164.436 325.034,164.951 323.206,164.951 321.452,164.436 319.914,163.447 318.717,162.066 317.958,160.403 317.697,158.594 317.958,156.784 318.717,155.121 319.914,153.74 321.452,152.751 323.206,152.236 325.034,152.236 326.788,152.751 328.326,153.74 329.523,155.121 330.282,156.784 330.543,158.594 330.543,158.594"/>
<polyline fill="none" stroke="#ff0000" stroke-width="0.5" points="345.423,234.31 345.162,236.119 344.403,237.782 343.206,239.164 341.668,240.152 339.914,240.667 338.086,240.667 336.332,240.152 334.794,239.164 333.597,237.782 332.838,236.119 332.577,234.31 332.838,232.5 333.597,230.837 334.794,229.456 336.332,228.467 338.086,227.952 339.914,227.952 341.668,228.467 343.206,229.456 344.403,230.837 345.162,232.5 345.423,234.31 345.423,234.31"/>
<polyline fill="none" stroke="#ff0000" stroke-width="0.5" points="345.423,209.071 345.162,210.88 344.403,212.543 343.206,213.925 341.668,214.913 339.914,215.428 338.086,215.428 336.332,214.913 334.794,213.925 333.597,212.543 332.838,210.88 332.577,209.071 332.838,207.262 333.597,205.599 334.794,204.217 336.332,203.229 338.086,202.714 339.914,202.714 341.668,203.229 343.206,204.217 344.403,205.599 345.162,207.262 345.423,209.071 345.423,209.071"/>
<polyline fill="none" stroke="#ff0000" stroke-width="0.5" points="345.423,158.594 345.162,160.403 344.403,162.066 343.206,163.447 341.668,164.436 339.914,164.951 338.086,164.951 336.332,164.436 334.794,163.447 333.597,162.066 332.838,160.403 332.577,158.594 332.838,156.784 333.597,155.121 334.794,153.74 336.332,152.751 338.086,152.236 339.914,152.236 341.668,152.751 343.206,153.74 344.403,155.121 345.162,156.784 345.423,158.594 345.423,158.594"/>
<polyline fill="none" stroke="#ff0000" stroke-width="0.5" points="345.423,133.355 345.162,135.164 344.403,136.827 343.206,138.209 341.668,139.197 339.914,139.712 338.086,139.712 336.332,139.197 334.794,138.209 333.597,136.827 332.838,135.164 332.577,133.355 332.838,131.545 333.597,129.883 334.794,128.501 336.332,127.513 338.086,126.998 339.914,126.998 341.668,127.513 343.206,128.501 344.403,129.883 345.162,131.545 345.423,133.355 345.423,133.355"/>
<polyline fill="none" stroke="#ff0000" stroke-width="0.5" points="360.303,209.071 360.042,210.88 359.283,212.543 358.086,213.925 356.548,214.913 354.794,215.428 352.966,215.428 351.212,214.913 349.674,213.925 348.477,212.543 347.718,210.88 347.457,209.071 347.718,207.262 348.477,205.599 349.674,204.217 351.212,203.229 352.966,202.714 354.794,202.714 356.548,203.229 358.086,204.217 359.283,205.599 360.042,207.262 360.303,209.071 360.303,209.071"/>
<polyline fill="none" stroke="#ff0000" stroke-width="0.5" points="360.303,183.832 360.042,185.642 359.283,187.305 358.086,188.686 356.548,189.674 354.794,190.19 352.966,190.19 351.212,189.674 349.674,188.686 348.477,187.305 347.718,185.642 347.457,183.832 347.718,182.023 348.477,180.36 349.674,178.978 351.212,177.99 352.966,177.475 354.794,177.475 356.548,177.99 358.086,178.978 359.283,180.36 360.042,182.023 360.303,183.832 360.303,183.832"/>
<polyline fill="none" stroke="#ff0000" stroke-width="0.5" points="360.303,133.355 360.042,135.164 359.283,136.827 358.086,138.209 356.548,139.197 354.794,139.712 352.966,139.712 351.212,139.197 349.674,138.209 348.477,136.827 347.718,135.164 347.457,133.355 347.718,131.545 348.477,129.883 349.674,128.501 351.212,127.513 352.966,126.998 354.794,126.998 356.548,127.513 358.086,128.501 359.283,129.883 360.042,131.545 360.303,133.355 360.303,133.355"/>
<polyline fill="none" stroke="#ff0000" stroke-width="0.5" points="360.303,108.116 360.042,109.926 359.283,111.588 358.086,112.97 356.548,113.958 354.794,114.473 352.966,114.473 351.212,113.958 349.674,112.97 348.477,111.588 347.718,109.926 347.457,108.116 347.718,106.307 348.477,104.644 349.674,103.262 351.212,102.274 352.966,101.759 354.794,101.759 356.548,102.274 358.086,103.262 359.283,104.644 360.042,106.307 360.303,108.116 360.303,108.116"/>
<polyline fill="none" stroke="#ff0000" stroke-width="0.5" points="375.183,183.832 374.922,185.642 374.163,187.305 372.966,188.686 371.428,189.674 369.674,190.19 367.846,190.19 366.092,189.674 364.554,188.686 363.357,187.305 362.598,185.642 362.337,183.832 362.598,182.023 363.357,180.36 364.554,178.978 366.092,177.99 367.846,177.475 369.674,177.475 371.428,177.99 372.966,178.978 374.163,180.36 374.922,182.023 375.183,183.832 375.183,183.832"/>
<polyline fill="none" stroke="#ff0000" stroke-width="0.5" points="375.183,158.594 374.922,160.403 374.163,162.066 372.966,163.447 371.428,164.436 369.674,164.951 367.846,164.951 366.092,164.436 364.554,163.447 363.357,162.066 362.598,160.403 362.337,158.594 362.598,156.784 363.357,155.121 364.554,153.74 366.092,152.751 367.846,152.236 369.674,152.236 371.428,152.751 372.966,153.74 374.163,155.121 374.922,156.784 375.183,158.594 375.183,158.594"/>
<polyline fill="none" stroke="#ff0000" stroke-width="0.5" points="375.183,108.116 374.922,109.926 374.163,111.588 372.966,112.97 371.428,113.958 369.674,114.473 367.846,114.473 366.092,113.958 364.554,112.97 363.357,111.588 362.598,109.926 362.337,108.116 362.598,106.307 363.357,104.644 364.554,103.262 366.092,102.274 367.846,101.759 369.674,101.759 371.428,102.274 372.966,103.262 374.163,104.644 374.922,106.307 375.183,108.116 375.183,108.116"/>
<polyline fill="none" stroke="#ff0000" stroke-width="0.5" points="375.183,82.8774 374.922,84.6869 374.163,86.3498 372.966,87.7313 371.428,88.7196 369.674,89.2347 367.846,89.2347 366.092,88.7196 364.554,87.7313 363.357,86.3498 362.598,84.6869 362.337,82.8774 362.598,81.068 363.357,79.4051 364.554,78.0235 366.092,77.0352 367.846,76.5202 369.674,76.5202 371.428,77.0352 372.966,78.0235 374.163,79.4051 374.922,81.068 375.183,82.8774 375.183,82.8774"/>
<polyline fill="none" stroke="#ff0000" stroke-width="0.5" points="390.063,158.594 389.802,160.403 389.043,162.066 387.846,163.447 386.308,164.436 384.554,164.951 382.726,164.951 380.972,164.436 379.434,163.447 378.237,162.066 377.478,160.403 377.217,158.594 377.478,156.784 378.237,155.121 379.434,153.74 380.972,152.751 382.726,152.236 384.554,152.236 386.308,152.751 387.846,153.74 389.043,155.121 389.802,156.784 390.063,158.594 390.063,158.594"/>
<polyline fill="none" stroke="#ff0000" stroke-width="0.5" points="390.063,133.355 389.802,135.164 389.043,136.827 387.846,138.209 386.308,139.197 384.554,139.712 382.726,139.712 380.972,139.197 379.434,138.209 378.237,136.827 377.478,135.164 377.217,133.355 377.478,131.545 378.237,129.883 379.434,128.501 380.972,127.513 382.726,126.998 384.554,126.998 386.308,127.513 387.846,128.501 389.043,129.883 389.802,131.545 390.063,133.355 390.063,133.355"/>
<polyline fill="none" stroke="#ff0000" stroke-width="0.5" points="390.063,82.8774 389.802,84.6869 389.043,86.3498 387.846,87.7313 386.308,88.7196 384.554,89.2347 382.726,89.2347 380.972,88.7196 379.434,87.7313 378.237,86.3498 377.478,84.6869 377.217,82.8774 377.478,81.068 378.237,79.4051 379.434,78.0235 380.972,77.0352 382.726,76.5202 384.554,76.5202 386.308,77.0352 387.846,78.0235 389.043,79.4051 389.802,81.068 390.063,82.8774 390.063,82.8774"/>
<polyline fill="none" stroke="#ff0000" stroke-width="0.5" points="390.063,57.6387 389.802,59.4482 389.043,61.111 387.846,62.4926 386.308,63.4809 384.554,63.996 382.726,63.996 380.972,63.4809 379.434,62.4926 378.237,61.111 377.478,59.4482 377.217,57.6387 377.478,55.8293 378.237,54.1664 379.434,52.7848 380.972,51.7965 382.726,51.2815 384.554,51.2815 386.308,51.7965 387.846,52.7848 389.043,54.1664 389.802,55.8293 390.063,57.6387 390.063,57.6387"/>
<polyline fill="none" stroke="#ff0000" stroke-width="0.5" points="404.943,133.355 404.682,135.164 403.923,136.827 402.726,138.209 401.188,139.197 399.434,139.712 397.606,139.712 395.852,139.197 394.314,138.209 393.117,136.827 392.358,135.164 392.097,133.355 392.358,131.545 393.117,129.883 394.314,128.501 395.852,127.513 397.606,126.998 399.434,126.998 401.188,127.513 402.726,128.501 403.923,129.883 404.682,131.545 404.943,133.355 404.943,133.355"/>
<polyline fill="none" stroke="#ff0000" stroke-width="0.5" points="404.943,108.116 404.682,109.926 403.923,111.588 402.726,112.97 401.188,113.958 399.434,114.473 397.606,114.473 395.852,113.958 394.314,112.97 393.117,111.588 392.358,109.926 392.097,108.116 392.358,106.307 393.117,104.644 394.314,103.262 395.852,102.274 397.606,101.759 399.434,101.759 401.188,102.274 402.726,103.262 403.923,104.644 404.682,106.307 404.943,108.116 404.943,108.116"/>
<polyline fill="none" stroke="#ff0000" stroke-width="0.5" points="419.823,108.116 419.562,109.926 418.803,111.588 417.606,112.97 416.068,113.958 414.314,114.473 412.486,114.473 410.732,113.958 409.194,112.97 407.997,111.588 407.238,109.926 406.977,108.116 407.238,106.307 407.997,104.644 409.194,103.262 410.732,102.274 412.486,101.759 414.314,101.759 416.068,102.274 417.606,103.262 418.803,104.644 419.562,106.307 419.823,108.116 419.823,108.116"/>
<polyline fill="none" stroke="#ff0000" stroke-width="0.5" points="419.823,82.8774 419.562,84.6869 418.803,86.3498 417.606,87.7313 416.068,88.7196 414.314,89.2347 412.486,89.2347 410.732,88.7196 409.194,87.7313 407.997,86.3498 407.238,84.6869 406.977,82.8774 407.238,81.068 407.997,79.4051 409.194,78.0235 410.732,77.0352 412.486,76.5202 414.314,76.5202 416.068,77.0352 417.606,78.0235 418.803,79.4051 419.562,81.068 419.823,82.8774 419.823,82.8774"/>
<polyline fill="none" stroke="#ff0000" stroke-width="0.5" points="335.193,207.564 334.932,209.374 334.173,211.036 332.976,212.418 331.438,213.406 329.684,213.921 327.856,213.921 326.102,213.406 324.564,212.418 323.367,211.036 322.608,209.374 322.347,207.564 322.608,205.755 323.367,204.092 324.564,202.71 326.102,201.722 327.856,201.207 329.684,201.207 331.438,201.722 332.976,202.71 334.173,204.092 334.932,205.755 335.193,207.564 335.193,207.564"/>
<polyline fill="none" stroke="#ff0000" stroke-width="0.5" points="337.425,203.672 337.164,205.481 336.405,207.144 335.208,208.526 333.67,209.514 331.916,210.029 330.088,210.029 328.334,209.514 326.796,208.526 325.599,207.144 324.84,205.481 324.579,203.672 324.84,201.862 325.599,200.199 326.796,198.818 328.334,197.829 330.088,197.314 331.916,197.314 333.67,197.829 335.208,198.818 336.405,200.199 337.164,201.862 337.425,203.672 337.425,203.672"/>
<polyline fill="none" stroke="#ff0000" stroke-width="0.5" points="337.425,199.779 337.164,201.589 336.405,203.251 335.208,204.633 333.67,205.621 331.916,206.136 330.088,206.136 328.334,205.621 326.796,204.633 325.599,203.251 324.84,201.589 324.579,199.779 324.84,197.97 325.599,196.307 326.796,194.925 328.334,193.937 330.088,193.422 331.916,193.422 333.67,193.937 335.208,194.925 336.405,196.307 337.164,197.97 337.425,199.779 337.425,199.779"/>
<polyline fill="none" stroke="#ff0000" stroke-width="0.5" points="339.657,211.457 339.396,213.266 338.637,214.929 337.44,216.311 335.902,217.299 334.148,217.814 332.32,217.814 330.566,217.299 329.028,216.311 327.831,214.929 327.072,213.266 326.811,211.457 327.072,209.647 327.831,207.984 329.028,206.603 330.566,205.614 332.32,205.099 334.148,205.099 335.902,205.614 337.44,206.603 338.637,207.984 339.396,209.647 339.657,211.457 339.657,211.457"/>
<polyline fill="none" stroke="#ff0000" stroke-width="0.5" points="339.657,207.564 339.396,209.374 338.637,211.036 337.44,212.418 335.902,213.406 334.148,213.921 332.32,213.921 330.566,213.406 329.028,212.418 327.831,211.036 327.072,209.374 326.811,207.564 327.072,205.755 327.831,204.092 329.028,202.71 330.566,201.722 332.32,201.207 334.148,201.207 335.902,201.722 337.44,202.71 338.637,204.092 339.396,205.755 339.657,207.564 339.657,207.564"/>
<polyline fill="none" stroke="#ff0000" stroke-width="0.5" points="339.657,199.779 339.396,201.589 338.637,203.251 337.44,204.633 335.902,205.621 334.148,206.136 332.32,206.136 330.566,205.621 329.028,204.633 327.831,203.251 327.072,201.589 326.811,199.779 327.072,197.97 327.831,196.307 329.028,194.925 330.566,193.937 332.32,193.422 334.148,193.422 335.902,193.937 337.44,194.925 338.637,196.307 339.396,197.97 339.657,199.779 339.657,199.779"/>
<polyline fill="none" stroke="#ff0000" stroke-width="0.5" points="339.657,195.887 339.396,197.696 338.637,199.359 337.44,200.74 335.902,201.729 334.148,202.244 332.32,202.244 330.566,201.729 329.028,200.74 327.831,199.359 327.072,197.696 326.811,195.887 327.072,194.077 327.831,192.414 329.028,191.033 330.566,190.044 332.32,189.529 334.148,189.529 335.902,190.044 337.44,191.033 338.637,192.414 339.396,194.077 339.657,195.887 339.657,195.887"/>
<polyline fill="none" stroke="#ff0000" stroke-width="0.5" points="341.889,207.564 341.628,209.374 340.869,211.036 339.672,212.418 338.134,213.406 336.38,213.921 334.552,213.921 332.798,213.406 331.26,212.418 330.063,211.036 329.304,209.374 329.043,207.564 329.304,205.755 330.063,204.092 331.26,202.71 332.798,201.722 334.552,201.207 336.38,201.207 338.134,201.722 339.672,202.71 340.869,204.092 341.628,205.755 341.889,207.564 341.889,207.564"/>
<polyline fill="none" stroke="#ff0000" stroke-width="0.5" points="341.889,203.672 341.628,205.481 340.869,207.144 339.672,208.526 338.134,209.514 336.38,210.029 334.552,210.029 332.798,209.514 331.26,208.526 330.063,207.144 329.304,205.481 329.043,203.672 329.304,201.862 330.063,200.199 331.26,198.818 332.798,197.829 334.552,197.314 336.38,197.314 338.134,197.829 339.672,198.818 340.869,200.199 341.628,201.862 341.889,203.672 341.889,203.672"/>
<polyline fill="none" stroke="#ff0000" stroke-width="0.5" points="341.889,195.887 341.628,197.696 340.869,199.359 339.672,200.74 338.134,201.729 336.38,202.244 334.552,202.244 332.798,201.729 331.26,200.74 330.063,199.359 329.304,197.696 329.043,195.887 329.304,194.077 330.063,192.414 331.26,191.033 332.798,190.044 334.552,189.529 336.38,189.529 338.134,190.044 339.672,191.033 340.869,192.414 341.628,194.077 341.889,195.887 341.889,195.887"/>
<polyline fill="none" stroke="#ff0000" stroke-width="0.5" points="341.889,191.994 341.628,193.803 340.869,195.466 339.672,196.848 338.134,197.836 336.38,198.351 334.552,198.351 332.798,197.836 331.26,196.848 330.063,195.466 329.304,193.803 329.043,191.994 329.304,190.185 330.063,188.522 331.26,187.14 332.798,186.152 334.552,185.637 336.38,185.637 338.134,186.152 339.672,187.14 340.869,188.522 341.628,190.185 341.889,191.994 341.889,191.994"/>
<polyline fill="none" stroke="#ff0000" stroke-width="0.5" points="344.121,203.672 343.86,205.481 343.101,207.144 341.904,208.526 340.366,209.514 338.612,210.029 336.784,210.029 335.03,209.514 333.492,208.526 332.295,207.144 331.536,205.481 331.275,203.672 331.536,201.862 332.295,200.199 333.492,198.818 335.03,197.829 336.784,197.314 338.612,197.314 340.366,197.829 341.904,198.818 343.101,200.199 343.86,201.862 344.121,203.672 344.121,203.672"/>
<polyline fill="none" stroke="#ff0000" stroke-width="0.5" points="344.121,199.779 343.86,201.589 343.101,203.251 341.904,204.633 340.366,205.621 338.612,206.136 336.784,206.136 335.03,205.621 333.492,204.633 332.295,203.251 331.536,201.589 331.275,199.779 331.536,197.97 332.295,196.307 333.492,194.925 335.03,193.937 336.784,193.422 338.612,193.422 340.366,193.937 341.904,194.925 343.101,196.307 343.86,197.97 344.121,199.779 344.121,199.779"/>
<polyline fill="none" stroke="#ff0000" stroke-width="0.5" points="344.121,191.994 343.86,193.803 343.101,195.466 341.904,196.848 340.366,197.836 338.612,198.351 336.784,198.351 335.03,197.836 333.492,196.848 332.295,195.466 331.536,193.803 331.275,191.994 331.536,190.185 332.295,188.522 333.492,187.14 335.03,186.152 336.784,185.637 338.612,185.637 340.366,186.152 341.904,187.14 343.101,188.522 343.86,190.185 344.121,191.994 344.121,191.994"/>
<polyline fill="none" stroke="#ff0000" stroke-width="0.5" points="344.121,188.101 343.86,189.911 343.101,191.574 341.904,192.955 340.366,193.944 338.612,194.459 336.784,194.459 335.03,193.944 333.492,192.955 332.295,191.574 331.536,189.911 331.275,188.101 331.536,186.292 332.295,184.629 333.492,183.248 335.03,182.259 336.784,181.744 338.612,181.744 340.366,182.259 341.904,183.248 343.101,184.629 343.86,186.292 344.121,188.101 344.121,188.101"/>
<polyline fill="none" stroke="#ff0000" stroke-width="0.5" points="346.353,199.779 346.092,201.589 345.333,203.251 344.136,204.633 342.598,205.621 340.844,206.136 339.016,206.136 337.262,205.621 335.724,204.633 334.527,203.251 333.768,201.589 333.507,199.779 333.768,197.97 334.527,196.307 335.724,194.925 337.262,193.937 339.016,193.422 340.844,193.422 342.598,193.937 344.136,194.925 345.333,196.307 346.092,197.97 346.353,199.779 346.353,199.779"/>
<polyline fill="none" stroke="#ff0000" stroke-width="0.5" points="346.353,195.887 346.092,197.696 345.333,199.359 344.136,200.74 342.598,201.729 340.844,202.244 339.016,202.244 337.262,201.729 335.724,200.74 334.527,199.359 333.768,197.696 333.507,195.887 333.768,194.077 334.527,192.414 335.724,191.033 337.262,190.044 339.016,189.529 340.844,189.529 342.598,190.044 344.136,191.033 345.333,192.414 346.092,194.077 346.353,195.887 346.353,195.887"/>
<polyline fill="none" stroke="#ff0000" stroke-width="0.5" points="346.353,188.101 346.092,189.911 345.333,191.574 344.136,192.955 342.598,193.944 340.844,194.459 339.016,194.459 337.262,193.944 335.724,192.955 334.527,191.574 333.768,189.911 333.507,188.101 333.768,186.292 334.527,184.629 335.724,183.248 337.262,182.259 339.016,181.744 340.844,181.744 342.598,182.259 344.136,183.248 345.333,184.629 346.092,186.292 346.353,188.101 346.353,188.101"/>
<polyline fill="none" stroke="#ff0000" stroke-width="0.5" points="346.353,184.209 346.092,186.018 345.333,187.681 344.136,189.063 342.598,190.051 340.844,190.566 339.016,190.566 337.262,190.051 335.724,189.063 334.527,187.681 333.768,186.018 333.507,184.209 333.768,182.4 334.527,180.737 335.724,179.355 337.262,178.367 339.016,177.852 340.844,177.852 342.598,178.367 344.136,179.355 345.333,180.737 346.092,182.4 346.353,184.209 346.353,184.209"/>
<polyline fill="none" stroke="#ff0000" stroke-width="0.5" points="348.585,195.887 348.324,197.696 347.565,199.359 346.368,200.74 344.83,201.729 343.076,202.244 341.248,202.244 339.494,201.729 337.956,200.74 336.759,199.359 336,197.696 335.739,195.887 336,194.077 336.759,192.414 337.956,191.033 339.494,190.044 341.248,189.529 343.076,189.529 344.83,190.044 346.368,191.033 347.565,192.414 348.324,194.077 348.585,195.887 348.585,195.887"/>
<polyline fill="none" stroke="#ff0000" stroke-width="0.5" points="348.585,191.994 348.324,193.803 347.565,195.466 346.368,196.848 344.83,197.836 343.076,198.351 341.248,198.351 339.494,197.836 337.956,196.848 336.759,195.466 336,193.803 335.739,191.994 336,190.185 336.759,188.522 337.956,187.14 339.494,186.152 341.248,185.637 343.076,185.637 344.83,186.152 346.368,187.14 347.565,188.522 348.324,190.185 348.585,191.994 348.585,191.994"/>
<polyline fill="none" stroke="#ff0000" stroke-width="0.5" points="348.585,184.209 348.324,186.018 347.565,187.681 346.368,189.063 344.83,190.051 343.076,190.566 341.248,190.566 339.494,190.051 337.956,189.063 336.759,187.681 336,186.018 335.739,184.209 336,182.4 336.759,180.737 337.956,179.355 339.494,178.367 341.248,177.852 343.076,177.852 344.83,178.367 346.368,179.355 347.565,180.737 348.324,182.4 348.585,184.209 348.585,184.209"/>
<polyline fill="none" stroke="#ff0000" stroke-width="0.5" points="348.585,180.316 348.324,182.126 347.565,183.789 346.368,185.17 344.83,186.159 343.076,186.674 341.248,186.674 339.494,186.159 337.956,185.17 336.759,183.789 336,182.126 335.739,180.316 336,178.507 336.759,176.844 337.956,175.463 339.494,174.474 341.248,173.959 343.076,173.959 344.83,174.474 346.368,175.463 347.565,176.844 348.324,178.507 348.585,180.316 348.585,180.316"/>
<polyline fill="none" stroke="#ff0000" stroke-width="0.5" points="350.817,191.994 350.556,193.803 349.797,195.466 348.6,196.848 347.062,197.836 345.308,198.351 343.48,198.351 341.726,197.836 340.188,196.848 338.991,195.466 338.232,193.803 337.971,191.994 338.232,190.185 338.991,188.522 340.188,187.14 341.726,186.152 343.48,185.637 345.308,185.637 347.062,186.152 348.6,187.14 349.797,188.522 350.556,190.185 350.817,191.994 350.817,191.994"/>
<polyline fill="none" stroke="#ff0000" stroke-width="0.5" points="350.817,188.101 350.556,189.911 349.797,191.574 348.6,192.955 347.062,193.944 345.308,194.459 343.48,194.459 341.726,193.944 340.188,192.955 338.991,191.574 338.232,189.911 337.971,188.101 338.232,186.292 338.991,184.629 340.188,183.248 341.726,182.259 343.48,181.744 345.308,181.744 347.062,182.259 348.6,183.248 349.797,184.629 350.556,186.292 350.817,188.101 350.817,188.101"/>
<polyline fill="none" stroke="#ff0000" stroke-width="0.5" points="350.817,180.316 350.556,182.126 349.797,183.789 348.6,185.17 347.062,186.159 345.308,186.674 343.48,186.674 341.726,186.159 340.188,185.17 338.991,183.789 338.232,182.126 337.971,180.316 338.232,178.507 338.991,176.844 340.188,175.463 341.726,174.474 343.48,173.959 345.308,173.959 347.062,174.474 348.6,175.463 349.797,176.844 350.556,178.507 350.817,180.316 350.817,180.316"/>
<polyline fill="none" stroke="#ff0000" stroke-width="0.5" points="350.817,176.424 350.556,178.233 349.797,179.896 348.6,181.278 347.062,182.266 345.308,182.781 343.48,182.781 341.726,182.266 340.188,181.278 338.991,179.896 338.232,178.233 337.971,176.424 338.232,174.614 338.991,172.952 340.188,171.57 341.726,170.582 343.48,170.067 345.308,170.067 347.062,170.582 348.6,171.57 349.797,172.952 350.556,174.614 350.817,176.424 350.817,176.424"/>
<polyline fill="none" stroke="#ff0000" stroke-width="0.5" points="353.049,188.101 352.788,189.911 352.029,191.574 350.832,192.955 349.294,193.944 347.54,194.459 345.712,194.459 343.958,193.944 342.42,192.955 341.223,191.574 340.464,189.911 340.203,188.101 340.464,186.292 341.223,184.629 342.42,183.248 343.958,182.259 345.712,181.744 347.54,181.744 349.294,182.259 350.832,183.248 352.029,184.629 352.788,186.292 353.049,188.101 353.049,188.101"/>
<polyline fill="none" stroke="#ff0000" stroke-width="0.5" points="353.049,184.209 352.788,186.018 352.029,187.681 350.832,189.063 349.294,190.051 347.54,190.566 345.712,190.566 343.958,190.051 342.42,189.063 341.223,187.681 340.464,186.018 340.203,184.209 340.464,182.4 341.223,180.737 342.42,179.355 343.958,178.367 345.712,177.852 347.54,177.852 349.294,178.367 350.832,179.355 352.029,180.737 352.788,182.4 353.049,184.209 353.049,184.209"/>
<polyline fill="none" stroke="#ff0000" stroke-width="0.5" points="353.049,176.424 352.788,178.233 352.029,179.896 350.832,181.278 349.294,182.266 347.54,182.781 345.712,182.781 343.958,182.266 342.42,181.278 341.223,179.896 340.464,178.233 340.203,176.424 340.464,174.614 341.223,172.952 342.42,171.57 343.958,170.582 345.712,170.067 347.54,170.067 349.294,170.582 350.832,171.57 352.029,172.952 352.788,174.614 353.049,176.424 353.049,176.424"/>
<polyline fill="none" stroke="#ff0000" stroke-width="0.5" points="353.049,172.531 352.788,174.341 352.029,176.004 350.832,177.385 349.294,178.374 347.54,178.889 345.712,178.889 343.958,178.374 342.42,177.385 341.223,176.004 340.464,174.341 340.203,172.531 340.464,170.722 341.223,169.059 342.42,167.677 343.958,166.689 345.712,166.174 347.54,166.174 349.294,166.689 350.832,167.677 352.029,169.059 352.788,170.722 353.049,172.531 353.049,172.531"/>
<polyline fill="none" stroke="#ff0000" stroke-width="0.5" points="355.281,184.209 355.02,186.018 354.261,187.681 353.064,189.063 351.526,190.051 349.772,190.566 347.944,190.566 346.19,190.051 344.652,189.063 343.455,187.681 342.696,186.018 342.435,184.209 342.696,182.4 343.455,180.737 344.652,179.355 346.19,178.367 347.944,177.852 349.772,177.852 351.526,178.367 353.064,179.355 354.261,180.737 355.02,182.4 355.281,184.209 355.281,184.209"/>
<polyline fill="none" stroke="#ff0000" stroke-width="0.5" points="355.281,180.316 355.02,182.126 354.261,183.789 353.064,185.17 351.526,186.159 349.772,186.674 347.944,186.674 346.19,186.159 344.652,185.17 343.455,183.789 342.696,182.126 342.435,180.316 342.696,178.507 343.455,176.844 344.652,175.463 346.19,174.474 347.944,173.959 349.772,173.959 351.526,174.474 353.064,175.463 354.261,176.844 355.02,178.507 355.281,180.316 355.281,180.316"/>
<polyline fill="none" stroke="#ff0000" stroke-width="0.5" points="355.281,172.531 355.02,174.341 354.261,176.004 353.064,177.385 351.526,178.374 349.772,178.889 347.944,178.889 346.19,178.374 344.652,177.385 343.455,176.004 342.696,174.341 342.435,172.531 342.696,170.722 343.455,169.059 344.652,167.677 346.19,166.689 347.944,166.174 349.772,166.174 351.526,166.689 353.064,167.677 354.261,169.059 355.02,170.722 355.281,172.531 355.281,172.531"/>
<polyline fill="none" stroke="#ff0000" stroke-width="0.5" points="355.281,168.639 355.02,170.448 354.261,172.111 353.064,173.493 351.526,174.481 349.772,174.996 347.944,174.996 346.19,174.481 344.652,173.493 343.455,172.111 342.696,170.448 342.435,168.639 342.696,166.829 343.455,165.166 344.652,163.785 346.19,162.797 347.944,162.282 349.772,162.282 351.526,162.797 353.064,163.785 354.261,165.166 355.02,166.829 355.281,168.639 355.281,168.639"/>
<polyline fill="none" stroke="#ff0000" stroke-width="0.5" points="357.513,180.316 357.252,182.126 356.493,183.789 355.296,185.17 353.758,186.159 352.004,186.674 350.176,186.674 348.422,186.159 346.884,185.17 345.687,183.789 344.928,182.126 344.667,180.316 344.928,178.507 345.687,176.844 346.884,175.463 348.422,174.474 350.176,173.959 352.004,173.959 353.758,174.474 355.296,175.463 356.493,176.844 357.252,178.507 357.513,180.316 357.513,180.316"/>
<polyline fill="none" stroke="#ff0000" stroke-width="0.5" points="357.513,176.424 357.252,178.233 356.493,179.896 355.296,181.278 353.758,182.266 352.004,182.781 350.176,182.781 348.422,182.266 346.884,181.278 345.687,179.896 344.928,178.233 344.667,176.424 344.928,174.614 345.687,172.952 346.884,171.57 348.422,170.582 350.176,170.067 352.004,170.067 353.758,170.582 355.296,171.57 356.493,172.952 357.252,174.614 357.513,176.424 357.513,176.424"/>
<polyline fill="none" stroke="#ff0000" stroke-width="0.5" points="357.513,168.639 357.252,170.448 356.493,172.111 355.296,173.493 353.758,174.481 352.004,174.996 350.176,174.996 348.422,174.481 346.884,173.493 345.687,172.111 344.928,170.448 344.667,168.639 344.928,166.829 345.687,165.166 346.884,163.785 348.422,162.797 350.176,162.282 352.004,162.282 353.758,162.797 355.296,163.785 356.493,165.166 357.252,166.829 357.513,168.639 357.513,168.639"/>
<polyline fill="none" stroke="#ff0000" stroke-width="0.5" points="357.513,164.746 357.252,166.556 356.493,168.219 355.296,169.6 353.758,170.589 352.004,171.104 350.176,171.104 348.422,170.589 346.884,169.6 345.687,168.219 344.928,166.556 344.667,164.746 344.928,162.937 345.687,161.274 346.884,159.892 348.422,158.904 350.176,158.389 352.004,158.389 353.758,158.904 355.296,159.892 356.493,161.274 357.252,162.937 357.513,164.746 357.513,164.746"/>
<polyline fill="none" stroke="#ff0000" stroke-width="0.5" points="359.745,176.424 359.484,178.233 358.725,179.896 357.528,181.278 355.99,182.266 354.236,182.781 352.408,182.781 350.654,182.266 349.116,181.278 347.919,179.896 347.16,178.233 346.899,176.424 347.16,174.614 347.919,172.952 349.116,171.57 350.654,170.582 352.408,170.067 354.236,170.067 355.99,170.582 357.528,171.57 358.725,172.952 359.484,174.614 359.745,176.424 359.745,176.424"/>
<polyline fill="none" stroke="#ff0000" stroke-width="0.5" points="359.745,172.531 359.484,174.341 358.725,176.004 357.528,177.385 355.99,178.374 354.236,178.889 352.408,178.889 350.654,178.374 349.116,177.385 347.919,176.004 347.16,174.341 346.899,172.531 347.16,170.722 347.919,169.059 349.116,167.677 350.654,166.689 352.408,166.174 354.236,166.174 355.99,166.689 357.528,167.677 358.725,169.059 359.484,170.722 359.745,172.531 359.745,172.531"/>
<polyline fill="none" stroke="#ff0000" stroke-width="0.5" points="359.745,164.746 359.484,166.556 358.725,168.219 357.528,169.6 355.99,170.589 354.236,171.104 352.408,171.104 350.654,170.589 349.116,169.6 347.919,168.219 347.16,166.556 346.899,164.746 347.16,162.937 347.919,161.274 349.116,159.892 350.654,158.904 352.408,158.389 354.236,158.389 355.99,158.904 357.528,159.892 358.725,161.274 359.484,162.937 359.745,164.746 359.745,164.746"/>
<polyline fill="none" stroke="#ff0000" stroke-width="0.5" points="359.745,160.854 359.484,162.663 358.725,164.326 357.528,165.708 355.99,166.696 354.236,167.211 352.408,167.211 350.654,166.696 349.116,165.708 347.919,164.326 347.16,162.663 346.899,160.854 347.16,159.044 347.919,157.381 349.116,156 350.654,155.012 352.408,154.496 354.236,154.496 355.99,155.012 357.528,156 358.725,157.381 359.484,159.044 359.745,160.854 359.745,160.854"/>
<polyline fill="none" stroke="#ff0000" stroke-width="0.5" points="361.977,172.531 361.716,174.341 360.957,176.004 359.76,177.385 358.222,178.374 356.468,178.889 354.64,178.889 352.886,178.374 351.348,177.385 350.151,176.004 349.392,174.341 349.131,172.531 349.392,170.722 350.151,169.059 351.348,167.677 352.886,166.689 354.64,166.174 356.468,166.174 358.222,166.689 359.76,167.677 360.957,169.059 361.716,170.722 361.977,172.531 361.977,172.531"/>
<polyline fill="none" stroke="#ff0000" stroke-width="0.5" points="361.977,168.639 361.716,170.448 360.957,172.111 359.76,173.493 358.222,174.481 356.468,174.996 354.64,174.996 352.886,174.481 351.348,173.493 350.151,172.111 349.392,170.448 349.131,168.639 349.392,166.829 350.151,165.166 351.348,163.785 352.886,162.797 354.64,162.282 356.468,162.282 358.222,162.797 359.76,163.785 360.957,165.166 361.716,166.829 361.977,168.639 361.977,168.639"/>
<polyline fill="none" stroke="#ff0000" stroke-width="0.5" points="361.977,160.854 361.716,162.663 360.957,164.326 359.76,165.708 358.222,166.696 356.468,167.211 354.64,167.211 352.886,166.696 351.348,165.708 350.151,164.326 349.392,162.663 349.131,160.854 349.392,159.044 350.151,157.381 351.348,156 352.886,155.012 354.64,154.496 356.468,154.496 358.222,155.012 359.76,156 360.957,157.381 361.716,159.044 361.977,160.854 361.977,160.854"/>
<polyline fill="none" stroke="#ff0000" stroke-width="0.5" points="361.977,156.961 361.716,158.771 360.957,160.434 359.76,161.815 358.222,162.803 356.468,163.318 354.64,163.318 352.886,162.803 351.348,161.815 350.151,160.434 349.392,158.771 349.131,156.961 349.392,155.152 350.151,153.489 351.348,152.107 352.886,151.119 354.64,150.604 356.468,150.604 358.222,151.119 359.76,152.107 360.957,153.489 361.716,155.152 361.977,156.961 361.977,156.961"/>
<polyline fill="none" stroke="#ff0000" stroke-width="0.5" points="364.209,168.639 363.948,170.448 363.189,172.111 361.992,173.493 360.454,174.481 358.7,174.996 356.872,174.996 355.118,174.481 353.58,173.493 352.383,172.111 351.624,170.448 351.363,168.639 351.624,166.829 352.383,165.166 353.58,163.785 355.118,162.797 356.872,162.282 358.7,162.282 360.454,162.797 361.992,163.785 363.189,165.166 363.948,166.829 364.209,168.639 364.209,168.639"/>
<polyline fill="none" stroke="#ff0000" stroke-width="0.5" points="364.209,164.746 363.948,166.556 363.189,168.219 361.992,169.6 360.454,170.589 358.7,171.104 356.872,171.104 355.118,170.589 353.58,169.6 352.383,168.219 351.624,166.556 351.363,164.746 351.624,162.937 352.383,161.274 353.58,159.892 355.118,158.904 356.872,158.389 358.7,158.389 360.454,158.904 361.992,159.892 363.189,161.274 363.948,162.937 364.209,164.746 364.209,164.746"/>
<polyline fill="none" stroke="#ff0000" stroke-width="0.5" points="364.209,156.961 363.948,158.771 363.189,160.434 361.992,161.815 360.454,162.803 358.7,163.318 356.872,163.318 355.118,162.803 353.58,161.815 352.383,160.434 351.624,158.771 351.363,156.961 351.624,155.152 352.383,153.489 353.58,152.107 355.118,151.119 356.872,150.604 358.7,150.604 360.454,151.119 361.992,152.107 363.189,153.489 363.948,155.152 364.209,156.961 364.209,156.961"/>
<polyline fill="none" stroke="#ff0000" stroke-width="0.5" points="364.209,153.069 363.948,154.878 363.189,156.541 361.992,157.923 360.454,158.911 358.7,159.426 356.872,159.426 355.118,158.911 353.58,157.923 352.383,156.541 351.624,154.878 351.363,153.069 351.624,151.259 352.383,149.596 353.58,148.215 355.118,147.226 356.872,146.711 358.7,146.711 360.454,147.226 361.992,148.215 363.189,149.596 363.948,151.259 364.209,153.069 364.209,153.069"/>
<polyline fill="none" stroke="#ff0000" stroke-width="0.5" points="366.441,164.746 366.18,166.556 365.421,168.219 364.224,169.6 362.686,170.589 360.932,171.104 359.104,171.104 357.35,170.589 355.812,169.6 354.615,168.219 353.856,166.556 353.595,164.746 353.856,162.937 354.615,161.274 355.812,159.892 357.35,158.904 359.104,158.389 360.932,158.389 362.686,158.904 364.224,159.892 365.421,161.274 366.18,162.937 366.441,164.746 366.441,164.746"/>
<polyline fill="none" stroke="#ff0000" stroke-width="0.5" points="366.441,160.854 366.18,162.663 365.421,164.326 364.224,165.708 362.686,166.696 360.932,167.211 359.104,167.211 357.35,166.696 355.812,165.708 354.615,164.326 353.856,162.663 353.595,160.854 353.856,159.044 354.615,157.381 355.812,156 357.35,155.012 359.104,154.496 360.932,154.496 362.686,155.012 364.224,156 365.421,157.381 366.18,159.044 366.441,160.854 366.441,160.854"/>
<polyline fill="none" stroke="#ff0000" stroke-width="0.5" points="366.441,153.069 366.18,154.878 365.421,156.541 364.224,157.923 362.686,158.911 360.932,159.426 359.104,159.426 357.35,158.911 355.812,157.923 354.615,156.541 353.856,154.878 353.595,153.069 353.856,151.259 354.615,149.596 355.812,148.215 357.35,147.226 359.104,146.711 360.932,146.711 362.686,147.226 364.224,148.215 365.421,149.596 366.18,151.259 366.441,153.069 366.441,153.069"/>
<polyline fill="none" stroke="#ff0000" stroke-width="0.5" points="366.441,149.176 366.18,150.986 365.421,152.648 364.224,154.03 362.686,155.018 360.932,155.533 359.104,155.533 357.35,155.018 355.812,154.03 354.615,152.648 353.856,150.986 353.595,149.176 353.856,147.367 354.615,145.704 355.812,144.322 357.35,143.334 359.104,142.819 360.932,142.819 362.686,143.334 364.224,144.322 365.421,145.704 366.18,147.367 366.441,149.176 366.441,149.176"/>
<polyline fill="none" stroke="#ff0000" stroke-width="0.5" points="368.673,160.854 368.412,162.663 367.653,164.326 366.456,165.708 364.918,166.696 363.164,167.211 361.336,167.211 359.582,166.696 358.044,165.708 356.847,164.326 356.088,162.663 355.827,160.854 356.088,159.044 356.847,157.381 358.044,156 359.582,155.012 361.336,154.496 363.164,154.496 364.918,155.012 366.456,156 367.653,157.381 368.412,159.044 368.673,160.854 368.673,160.854"/>
<polyline fill="none" stroke="#ff0000" stroke-width="0.5" points="368.673,156.961 368.412,158.771 367.653,160.434 366.456,161.815 364.918,162.803 363.164,163.318 361.336,163.318 359.582,162.803 358.044,161.815 356.847,160.434 356.088,158.771 355.827,156.961 356.088,155.152 356.847,153.489 358.044,152.107 359.582,151.119 361.336,150.604 363.164,150.604 364.918,151.119 366.456,152.107 367.653,153.489 368.412,155.152 368.673,156.961 368.673,156.961"/>
<polyline fill="none" stroke="#ff0000" stroke-width="0.5" points="368.673,149.176 368.412,150.986 367.653,152.648 366.456,154.03 364.918,155.018 363.164,155.533 361.336,155.533 359.582,155.018 358.044,154.03 356.847,152.648 356.088,150.986 355.827,149.176 356.088,147.367 356.847,145.704 358.044,144.322 359.582,143.334 361.336,142.819 363.164,142.819 364.918,143.334 366.456,144.322 367.653,145.704 368.412,147.367 368.673,149.176 368.673,149.176"/>
<polyline fill="none" stroke="#ff0000" stroke-width="0.5" points="368.673,145.284 368.412,147.093 367.653,148.756 366.456,150.137 364.918,151.126 363.164,151.641 361.336,151.641 359.582,151.126 358.044,150.137 356.847,148.756 356.088,147.093 355.827,145.284 356.088,143.474 356.847,141.811 358.044,140.43 359.582,139.441 361.336,138.926 363.164,138.926 364.918,139.441 366.456,140.43 367.653,141.811 368.412,143.474 368.673,145.284 368.673,145.284"/>
<polyline fill="none" stroke="#ff0000" stroke-width="0.5" points="370.905,156.961 370.644,158.771 369.885,160.434 368.688,161.815 367.15,162.803 365.396,163.318 363.568,163.318 361.814,162.803 360.276,161.815 359.079,160.434 358.32,158.771 358.059,156.961 358.32,155.152 359.079,153.489 360.276,152.107 361.814,151.119 363.568,150.604 365.396,150.604 367.15,151.119 368.688,152.107 369.885,153.489 370.644,155.152 370.905,156.961 370.905,156.961"/>
<polyline fill="none" stroke="#ff0000" stroke-width="0.5" points="370.905,153.069 370.644,154.878 369.885,156.541 368.688,157.923 367.15,158.911 365.396,159.426 363.568,159.426 361.814,158.911 360.276,157.923 359.079,156.541 358.32,154.878 358.059,153.069 358.32,151.259 359.079,149.596 360.276,148.215 361.814,147.226 363.568,146.711 365.396,146.711 367.15,147.226 368.688,148.215 369.885,149.596 370.644,151.259 370.905,153.069 370.905,153.069"/>
<polyline fill="none" stroke="#ff0000" stroke-width="0.5" points="370.905,145.284 370.644,147.093 369.885,148.756 368.688,150.137 367.15,151.126 365.396,151.641 363.568,151.641 361.814,151.126 360.276,150.137 359.079,148.756 358.32,147.093 358.059,145.284 358.32,143.474 359.079,141.811 360.276,140.43 361.814,139.441 363.568,138.926 365.396,138.926 367.15,139.441 368.688,140.43 369.885,141.811 370.644,143.474 370.905,145.284 370.905,145.284"/>
<polyline fill="none" stroke="#ff0000" stroke-width="0.5" points="370.905,141.391 370.644,143.201 369.885,144.863 368.688,146.245 367.15,147.233 365.396,147.748 363.568,147.748 361.814,147.233 360.276,146.245 359.079,144.863 358.32,143.201 358.059,141.391 358.32,139.582 359.079,137.919 360.276,136.537 361.814,135.549 363.568,135.034 365.396,135.034 367.15,135.549 368.688,136.537 369.885,137.919 370.644,139.582 370.905,141.391 370.905,141.391"/>
<polyline fill="none" stroke="#ff0000" stroke-width="0.5" points="373.137,153.069 372.876,154.878 372.117,156.541 370.92,157.923 369.382,158.911 367.628,159.426 365.8,159.426 364.046,158.911 362.508,157.923 361.311,156.541 360.552,154.878 360.291,153.069 360.552,151.259 361.311,149.596 362.508,148.215 364.046,147.226 365.8,146.711 367.628,146.711 369.382,147.226 370.92,148.215 372.117,149.596 372.876,151.259 373.137,153.069 373.137,153.069"/>
<polyline fill="none" stroke="#ff0000" stroke-width="0.5" points="373.137,149.176 372.876,150.986 372.117,152.648 370.92,154.03 369.382,155.018 367.628,155.533 365.8,155.533 364.046,155.018 362.508,154.03 361.311,152.648 360.552,150.986 360.291,149.176 360.552,147.367 361.311,145.704 362.508,144.322 364.046,143.334 365.8,142.819 367.628,142.819 369.382,143.334 370.92,144.322 372.117,145.704 372.876,147.367 373.137,149.176 373.137,149.176"/>
<polyline fill="none" stroke="#ff0000" stroke-width="0.5" points="373.137,141.391 372.876,143.201 372.117,144.863 370.92,146.245 369.382,147.233 367.628,147.748 365.8,147.748 364.046,147.233 362.508,146.245 361.311,144.863 360.552,143.201 360.291,141.391 360.552,139.582 361.311,137.919 362.508,136.537 364.046,135.549 365.8,135.034 367.628,135.034 369.382,135.549 370.92,136.537 372.117,137.919 372.876,139.582 373.137,141.391 373.137,141.391"/>
<polyline fill="none" stroke="#ff0000" stroke-width="0.5" points="373.137,137.499 372.876,139.308 372.117,140.971 370.92,142.352 369.382,143.341 367.628,143.856 365.8,143.856 364.046,143.341 362.508,142.352 361.311,140.971 360.552,139.308 360.291,137.499 360.552,135.689 361.311,134.026 362.508,132.645 364.046,131.656 365.8,131.141 367.628,131.141 369.382,131.656 370.92,132.645 372.117,134.026 372.876,135.689 373.137,137.499 373.137,137.499"/>
<polyline fill="none" stroke="#ff0000" stroke-width="0.5" points="375.369,149.176 375.108,150.986 374.349,152.648 373.152,154.03 371.614,155.018 369.86,155.533 368.032,155.533 366.278,155.018 364.74,154.03 363.543,152.648 362.784,150.986 362.523,149.176 362.784,147.367 363.543,145.704 364.74,144.322 366.278,143.334 368.032,142.819 369.86,142.819 371.614,143.334 373.152,144.322 374.349,145.704 375.108,147.367 375.369,149.176 375.369,149.176"/>
<polyline fill="none" stroke="#ff0000" stroke-width="0.5" points="375.369,145.284 375.108,147.093 374.349,148.756 373.152,150.137 371.614,151.126 369.86,151.641 368.032,151.641 366.278,151.126 364.74,150.137 363.543,148.756 362.784,147.093 362.523,145.284 362.784,143.474 363.543,141.811 364.74,140.43 366.278,139.441 368.032,138.926 369.86,138.926 371.614,139.441 373.152,140.43 374.349,141.811 375.108,143.474 375.369,145.284 375.369,145.284"/>
<polyline fill="none" stroke="#ff0000" stroke-width="0.5" points="375.369,137.499 375.108,139.308 374.349,140.971 373.152,142.352 371.614,143.341 369.86,143.856 368.032,143.856 366.278,143.341 364.74,142.352 363.543,140.971 362.784,139.308 362.523,137.499 362.784,135.689 363.543,134.026 364.74,132.645 366.278,131.656 368.032,131.141 369.86,131.141 371.614,131.656 373.152,132.645 374.349,134.026 375.108,135.689 375.369,137.499 375.369,137.499"/>
<polyline fill="none" stroke="#ff0000" stroke-width="0.5" points="375.369,133.606 375.108,135.415 374.349,137.078 373.152,138.46 371.614,139.448 369.86,139.963 368.032,139.963 366.278,139.448 364.74,138.46 363.543,137.078 362.784,135.415 362.523,133.606 362.784,131.797 363.543,130.134 364.74,128.752 366.278,127.764 368.032,127.249 369.86,127.249 371.614,127.764 373.152,128.752 374.349,130.134 375.108,131.797 375.369,133.606 375.369,133.606"/>
<polyline fill="none" stroke="#ff0000" stroke-width="0.5" points="377.601,145.284 377.34,147.093 376.581,148.756 375.384,150.137 373.846,151.126 372.092,151.641 370.264,151.641 368.51,151.126 366.972,150.137 365.775,148.756 365.016,147.093 364.755,145.284 365.016,143.474 365.775,141.811 366.972,140.43 368.51,139.441 370.264,138.926 372.092,138.926 373.846,139.441 375.384,140.43 376.581,141.811 377.34,143.474 377.601,145.284 377.601,145.284"/>
<polyline fill="none" stroke="#ff0000" stroke-width="0.5" points="377.601,141.391 377.34,143.201 376.581,144.863 375.384,146.245 373.846,147.233 372.092,147.748 370.264,147.748 368.51,147.233 366.972,146.245 365.775,144.863 365.016,143.201 364.755,141.391 365.016,139.582 365.775,137.919 366.972,136.537 368.51,135.549 370.264,135.034 372.092,135.034 373.846,135.549 375.384,136.537 376.581,137.919 377.34,139.582 377.601,141.391 377.601,141.391"/>
<polyline fill="none" stroke="#ff0000" stroke-width="0.5" points="377.601,133.606 377.34,135.415 376.581,137.078 375.384,138.46 373.846,139.448 372.092,139.963 370.264,139.963 368.51,139.448 366.972,138.46 365.775,137.078 365.016,135.415 364.755,133.606 365.016,131.797 365.775,130.134 366.972,128.752 368.51,127.764 370.264,127.249 372.092,127.249 373.846,127.764 375.384,128.752 376.581,130.134 377.34,131.797 377.601,133.606 377.601,133.606"/>
<polyline fill="none" stroke="#ff0000" stroke-width="0.5" points="377.601,129.713 377.34,131.523 376.581,133.186 375.384,134.567 373.846,135.556 372.092,136.071 370.264,136.071 368.51,135.556 366.972,134.567 365.775,133.186 365.016,131.523 364.755,129.713 365.016,127.904 365.775,126.241 366.972,124.86 368.51,123.871 370.264,123.356 372.092,123.356 373.846,123.871 375.384,124.86 376.581,126.241 377.34,127.904 377.601,129.713 377.601,129.713"/>
<polyline fill="none" stroke="#ff0000" stroke-width="0.5" points="379.833,141.391 379.572,143.201 378.813,144.863 377.616,146.245 376.078,147.233 374.324,147.748 372.496,147.748 370.742,147.233 369.204,146.245 368.007,144.863 367.248,143.201 366.987,141.391 367.248,139.582 368.007,137.919 369.204,136.537 370.742,135.549 372.496,135.034 374.324,135.034 376.078,135.549 377.616,136.537 378.813,137.919 379.572,139.582 379.833,141.391 379.833,141.391"/>
<polyline fill="none" stroke="#ff0000" stroke-width="0.5" points="379.833,137.499 379.572,139.308 378.813,140.971 377.616,142.352 376.078,143.341 374.324,143.856 372.496,143.856 370.742,143.341 369.204,142.352 368.007,140.971 367.248,139.308 366.987,137.499 367.248,135.689 368.007,134.026 369.204,132.645 370.742,131.656 372.496,131.141 374.324,131.141 376.078,131.656 377.616,132.645 378.813,134.026 379.572,135.689 379.833,137.499 379.833,137.499"/>
<polyline fill="none" stroke="#ff0000" stroke-width="0.5" points="379.833,129.713 379.572,131.523 378.813,133.186 377.616,134.567 376.078,135.556 374.324,136.071 372.496,136.071 370.742,135.556 369.204,134.567 368.007,133.186 367.248,131.523 366.987,129.713 367.248,127.904 368.007,126.241 369.204,124.86 370.742,123.871 372.496,123.356 374.324,123.356 376.078,123.871 377.616,124.86 378.813,126.241 379.572,127.904 379.833,129.713 379.833,129.713"/>
<polyline fill="none" stroke="#ff0000" stroke-width="0.5" points="379.833,125.821 379.572,127.63 378.813,129.293 377.616,130.675 376.078,131.663 374.324,132.178 372.496,132.178 370.742,131.663 369.204,130.675 368.007,129.293 367.248,127.63 366.987,125.821 367.248,124.011 368.007,122.349 369.204,120.967 370.742,119.979 372.496,119.464 374.324,119.464 376.078,119.979 377.616,120.967 378.813,122.349 379.572,124.011 379.833,125.821 379.833,125.821"/>
<polyline fill="none" stroke="#ff0000" stroke-width="0.5" points="382.065,137.499 381.804,139.308 381.045,140.971 379.848,142.352 378.31,143.341 376.556,143.856 374.728,143.856 372.974,143.341 371.436,142.352 370.239,140.971 369.48,139.308 369.219,137.499 369.48,135.689 370.239,134.026 371.436,132.645 372.974,131.656 374.728,131.141 376.556,131.141 378.31,131.656 379.848,132.645 381.045,134.026 381.804,135.689 382.065,137.499 382.065,137.499"/>
<polyline fill="none" stroke="#ff0000" stroke-width="0.5" points="382.065,133.606 381.804,135.415 381.045,137.078 379.848,138.46 378.31,139.448 376.556,139.963 374.728,139.963 372.974,139.448 371.436,138.46 370.239,137.078 369.48,135.415 369.219,133.606 369.48,131.797 370.239,130.134 371.436,128.752 372.974,127.764 374.728,127.249 376.556,127.249 378.31,127.764 379.848,128.752 381.045,130.134 381.804,131.797 382.065,133.606 382.065,133.606"/>
<polyline fill="none" stroke="#ff0000" stroke-width="0.5" points="382.065,125.821 381.804,127.63 381.045,129.293 379.848,130.675 378.31,131.663 376.556,132.178 374.728,132.178 372.974,131.663 371.436,130.675 370.239,129.293 369.48,127.63 369.219,125.821 369.48,124.011 370.239,122.349 371.436,120.967 372.974,119.979 374.728,119.464 376.556,119.464 378.31,119.979 379.848,120.967 381.045,122.349 381.804,124.011 382.065,125.821 382.065,125.821"/>
<polyline fill="none" stroke="#ff0000" stroke-width="0.5" points="382.065,121.928 381.804,123.738 381.045,125.401 379.848,126.782 378.31,127.771 376.556,128.286 374.728,128.286 372.974,127.771 371.436,126.782 370.239,125.401 369.48,123.738 369.219,121.928 369.48,120.119 370.239,118.456 371.436,117.074 372.974,116.086 374.728,115.571 376.556,115.571 378.31,116.086 379.848,117.074 381.045,118.456 381.804,120.119 382.065,121.928 382.065,121.928"/>
<polyline fill="none" stroke="#ff0000" stroke-width="0.5" points="384.297,133.606 384.036,135.415 383.277,137.078 382.08,138.46 380.542,139.448 378.788,139.963 376.96,139.963 375.206,139.448 373.668,138.46 372.471,137.078 371.712,135.415 371.451,133.606 371.712,131.797 372.471,130.134 373.668,128.752 375.206,127.764 376.96,127.249 378.788,127.249 380.542,127.764 382.08,128.752 383.277,130.134 384.036,131.797 384.297,133.606 384.297,133.606"/>
<polyline fill="none" stroke="#ff0000" stroke-width="0.5" points="384.297,129.713 384.036,131.523 383.277,133.186 382.08,134.567 380.542,135.556 378.788,136.071 376.96,136.071 375.206,135.556 373.668,134.567 372.471,133.186 371.712,131.523 371.451,129.713 371.712,127.904 372.471,126.241 373.668,124.86 375.206,123.871 376.96,123.356 378.788,123.356 380.542,123.871 382.08,124.86 383.277,126.241 384.036,127.904 384.297,129.713 384.297,129.713"/>
<polyline fill="none" stroke="#ff0000" stroke-width="0.5" points="384.297,121.928 384.036,123.738 383.277,125.401 382.08,126.782 380.542,127.771 378.788,128.286 376.96,128.286 375.206,127.771 373.668,126.782 372.471,125.401 371.712,123.738 371.451,121.928 371.712,120.119 372.471,118.456 373.668,117.074 375.206,116.086 376.96,115.571 378.788,115.571 380.542,116.086 382.08,117.074 383.277,118.456 384.036,120.119 384.297,121.928 384.297,121.928"/>
<polyline fill="none" stroke="#ff0000" stroke-width="0.5" points="384.297,118.036 384.036,119.845 383.277,121.508 382.08,122.89 380.542,123.878 378.788,124.393 376.96,124.393 375.206,123.878 373.668,122.89 372.471,121.508 371.712,119.845 371.451,118.036 371.712,116.226 372.471,114.563 373.668,113.182 375.206,112.194 376.96,111.679 378.788,111.679 380.542,112.194 382.08,113.182 383.277,114.563 384.036,116.226 384.297,118.036 384.297,118.036"/>
<polyline fill="none" stroke="#ff0000" stroke-width="0.5" points="386.529,129.713 386.268,131.523 385.509,133.186 384.312,134.567 382.774,135.556 381.02,136.071 379.192,136.071 377.438,135.556 375.9,134.567 374.703,133.186 373.944,131.523 373.683,129.713 373.944,127.904 374.703,126.241 375.9,124.86 377.438,123.871 379.192,123.356 381.02,123.356 382.774,123.871 384.312,124.86 385.509,126.241 386.268,127.904 386.529,129.713 386.529,129.713"/>
<polyline fill="none" stroke="#ff0000" stroke-width="0.5" points="386.529,125.821 386.268,127.63 385.509,129.293 384.312,130.675 382.774,131.663 381.02,132.178 379.192,132.178 377.438,131.663 375.9,130.675 374.703,129.293 373.944,127.63 373.683,125.821 373.944,124.011 374.703,122.349 375.9,120.967 377.438,119.979 379.192,119.464 381.02,119.464 382.774,119.979 384.312,120.967 385.509,122.349 386.268,124.011 386.529,125.821 386.529,125.821"/>
<polyline fill="none" stroke="#ff0000" stroke-width="0.5" points="386.529,114.143 386.268,115.953 385.509,117.616 384.312,118.997 382.774,119.986 381.02,120.501 379.192,120.501 377.438,119.986 375.9,118.997 374.703,117.616 373.944,115.953 373.683,114.143 373.944,112.334 374.703,110.671 375.9,109.289 377.438,108.301 379.192,107.786 381.02,107.786 382.774,108.301 384.312,109.289 385.509,110.671 386.268,112.334 386.529,114.143 386.529,114.143"/>
<polyline fill="none" stroke="#ff0000" stroke-width="0.5" points="390.993,121.928 390.732,123.738 389.973,125.401 388.776,126.782 387.238,127.771 385.484,128.286 383.656,128.286 381.902,127.771 380.364,126.782 379.167,125.401 378.408,123.738 378.147,121.928 378.408,120.119 379.167,118.456 380.364,117.074 381.902,116.086 383.656,115.571 385.484,115.571 387.238,116.086 388.776,117.074 389.973,118.456 390.732,120.119 390.993,121.928 390.993,121.928"/>
<polyline fill="none" stroke="#ff0000" stroke-width="0.5" points="390.993,118.036 390.732,119.845 389.973,121.508 388.776,122.89 387.238,123.878 385.484,124.393 383.656,124.393 381.902,123.878 380.364,122.89 379.167,121.508 378.408,119.845 378.147,118.036 378.408,116.226 379.167,114.563 380.364,113.182 381.902,112.194 383.656,111.679 385.484,111.679 387.238,112.194 388.776,113.182 389.973,114.563 390.732,116.226 390.993,118.036 390.993,118.036"/>
</g>
</g>
</svg>
