<?xml version="1.0" encoding="utf-8" standalone="no"?><!DOCTYPE svg PUBLIC "-//W3C//DTD SVG 1.1//EN" "http://www.w3.org/Graphics/SVG/1.1/DTD/svg11.dtd">
<svg preserveAspectRatio="xMinYMin meet" width="100%" height="100%" viewBox="0 0 560.000 420.000"  version="1.1" xmlns="http://www.w3.org/2000/svg" xmlns:xlink="http://www.w3.org/1999/xlink">
  <desc>Matlab Figure Converted by PLOT2SVG written by Juerg Schwizer</desc>
  <g id="topgroup">
  <rect x="0" y="0" width="560.000" height="420.000" fill="#ffffff" stroke="none" />
  <g id ="ID000000">
  <clipPath id="ID000001">
    <rect x="72.800" y="31.500" width="434.000" height="342.300"/>
  </clipPath>
      <polygon fill="#ffffff" fill-opacity="1.00" stroke="none" stroke-width="0.5pt" stroke-opacity="1.00" stroke-dasharray="none" points="72.800,373.800 506.800,373.800 506.800,31.500 72.800,31.500 "/>
      <polygon fill="#ffffff" fill-opacity="1.00" stroke="none" stroke-width="0.5pt" stroke-opacity="1.00" stroke-dasharray="none" points="72.800,31.500 506.800,31.500 506.800,31.500 72.800,31.500 "/>
      <polygon fill="#ffffff" fill-opacity="1.00" stroke="none" stroke-width="0.5pt" stroke-opacity="1.00" stroke-dasharray="none" points="72.800,373.800 72.800,373.800 72.800,31.500 72.800,31.500 "/>
    <g>
<g id="ID000002" clip-path="url(#ID000001)" >
      <polygon fill="#ff0000" fill-opacity="0.50" stroke="#000000" stroke-width="2.0pt" stroke-opacity="0.00" stroke-dasharray="none" points="90.160,241.337 107.520,215.616 124.880,136.034 142.240,132.596 159.600,139.307 176.960,136.370 194.320,109.617 211.680,94.725 229.040,87.323 246.400,91.756 263.760,80.689 281.120,73.546 298.480,63.747 315.840,61.790 333.200,84.177 350.560,69.088 367.920,59.726 385.280,74.069 402.640,60.602 420.000,59.680 437.360,66.990 454.720,67.241 472.080,58.150 472.080,96.764 454.720,97.509 437.360,105.410 420.000,101.573 402.640,119.667 385.280,125.217 367.920,88.849 350.560,102.438 333.200,116.857 315.840,93.998 298.480,94.336 281.120,106.723 263.760,110.291 246.400,134.197 229.040,134.368 211.680,129.917 194.320,135.134 176.960,190.712 159.600,184.790 142.240,159.346 124.880,179.319 107.520,284.423 90.160,304.589 "/>
</g>
<g id="ID000003" clip-path="url(#ID000001)" >
      <polyline fill="none" stroke="#ff0000" stroke-width="2.0pt" stroke-dasharray="none" points="90.160,272.963 107.520,250.020 124.880,157.677 142.240,145.971 159.600,162.048 176.960,163.541 194.320,122.376 211.680,112.321 229.040,110.845 246.400,112.977 263.760,95.490 281.120,90.135 298.480,79.042 315.840,77.894 333.200,100.517 350.560,85.763 367.920,74.288 385.280,99.643 402.640,90.135 420.000,80.626 437.360,86.200 454.720,82.375 472.080,77.457 "/>
<g>
</g>
</g>
<g id="ID000004" clip-path="url(#ID000001)" >
      <polygon fill="#0000ff" fill-opacity="0.50" stroke="#000000" stroke-width="2.0pt" stroke-opacity="0.00" stroke-dasharray="none" points="90.160,138.855 107.520,201.197 124.880,220.751 142.240,197.877 159.600,169.536 176.960,245.681 194.320,245.533 211.680,254.515 229.040,255.638 246.400,282.980 263.760,289.119 281.120,302.046 298.480,304.708 315.840,270.519 333.200,296.179 350.560,312.633 367.920,273.372 385.280,276.081 402.640,298.343 420.000,284.883 437.360,295.745 454.720,292.823 454.720,359.693 437.360,349.887 420.000,345.557 402.640,363.682 385.280,366.927 367.920,347.450 350.560,362.069 333.200,348.797 315.840,321.779 298.480,359.175 281.120,353.640 263.760,344.381 246.400,329.208 229.040,315.785 211.680,318.329 194.320,300.983 176.960,281.261 159.600,244.706 142.240,254.965 124.880,261.139 107.520,251.754 90.160,330.115 "/>
</g>
<g id="ID000005" clip-path="url(#ID000001)" >
      <polyline fill="none" stroke="#0000ff" stroke-width="2.0pt" stroke-dasharray="none" points="90.160,234.485 107.520,226.475 124.880,240.945 142.240,226.421 159.600,207.121 176.960,263.471 194.320,273.258 211.680,286.422 229.040,285.711 246.400,306.094 263.760,316.750 281.120,327.843 298.480,331.941 315.840,296.149 333.200,322.488 350.560,337.351 367.920,310.411 385.280,321.504 402.640,331.013 420.000,315.220 437.360,322.816 454.720,326.258 "/>
<g>
</g>
</g>
<g id="ID000006" >
</g>
<g id="ID000007" >
</g>
<g id="ID000008" >
</g>
    </g>
    <g>
      <polyline fill="none" stroke="#000000" stroke-width="0.5pt" stroke-dasharray="none" points="72.800,373.800 72.800,369.460 "/>
      <polyline fill="none" stroke="#000000" stroke-width="0.5pt" stroke-dasharray="none" points="159.600,373.800 159.600,369.460 "/>
      <polyline fill="none" stroke="#000000" stroke-width="0.5pt" stroke-dasharray="none" points="246.400,373.800 246.400,369.460 "/>
      <polyline fill="none" stroke="#000000" stroke-width="0.5pt" stroke-dasharray="none" points="333.200,373.800 333.200,369.460 "/>
      <polyline fill="none" stroke="#000000" stroke-width="0.5pt" stroke-dasharray="none" points="420.000,373.800 420.000,369.460 "/>
      <polyline fill="none" stroke="#000000" stroke-width="0.5pt" stroke-dasharray="none" points="506.800,373.800 506.800,369.460 "/>
      <polyline fill="none" stroke="#000000" stroke-width="0.5pt" stroke-dasharray="none" points="72.800,373.800 506.800,373.800 "/>
  <g transform="translate(72.800,397.166)">
    <g transform="rotate(-0.0)">
      <text x="0.000" y="0.000" font-family="Helvetica" text-anchor="middle" font-size="14pt" fill="#000000" >0</text>
    </g>
  </g>
  <g transform="translate(159.600,397.166)">
    <g transform="rotate(-0.0)">
      <text x="0.000" y="0.000" font-family="Helvetica" text-anchor="middle" font-size="14pt" fill="#000000" >5</text>
    </g>
  </g>
  <g transform="translate(246.400,397.166)">
    <g transform="rotate(-0.0)">
      <text x="0.000" y="0.000" font-family="Helvetica" text-anchor="middle" font-size="14pt" fill="#000000" >10</text>
    </g>
  </g>
  <g transform="translate(333.200,397.166)">
    <g transform="rotate(-0.0)">
      <text x="0.000" y="0.000" font-family="Helvetica" text-anchor="middle" font-size="14pt" fill="#000000" >15</text>
    </g>
  </g>
  <g transform="translate(420.000,397.166)">
    <g transform="rotate(-0.0)">
      <text x="0.000" y="0.000" font-family="Helvetica" text-anchor="middle" font-size="14pt" fill="#000000" >20</text>
    </g>
  </g>
  <g transform="translate(506.800,397.166)">
    <g transform="rotate(-0.0)">
      <text x="0.000" y="0.000" font-family="Helvetica" text-anchor="middle" font-size="14pt" fill="#000000" >25</text>
    </g>
  </g>
      <polyline fill="none" stroke="#000000" stroke-width="0.5pt" stroke-dasharray="none" points="72.800,373.800 77.140,373.800 "/>
      <polyline fill="none" stroke="#000000" stroke-width="0.5pt" stroke-dasharray="none" points="72.800,335.767 77.140,335.767 "/>
      <polyline fill="none" stroke="#000000" stroke-width="0.5pt" stroke-dasharray="none" points="72.800,297.733 77.140,297.733 "/>
      <polyline fill="none" stroke="#000000" stroke-width="0.5pt" stroke-dasharray="none" points="72.800,259.700 77.140,259.700 "/>
      <polyline fill="none" stroke="#000000" stroke-width="0.5pt" stroke-dasharray="none" points="72.800,221.667 77.140,221.667 "/>
      <polyline fill="none" stroke="#000000" stroke-width="0.5pt" stroke-dasharray="none" points="72.800,183.633 77.140,183.633 "/>
      <polyline fill="none" stroke="#000000" stroke-width="0.5pt" stroke-dasharray="none" points="72.800,145.600 77.140,145.600 "/>
      <polyline fill="none" stroke="#000000" stroke-width="0.5pt" stroke-dasharray="none" points="72.800,107.567 77.140,107.567 "/>
      <polyline fill="none" stroke="#000000" stroke-width="0.5pt" stroke-dasharray="none" points="72.800,69.533 77.140,69.533 "/>
      <polyline fill="none" stroke="#000000" stroke-width="0.5pt" stroke-dasharray="none" points="72.800,31.500 77.140,31.500 "/>
      <polyline fill="none" stroke="#000000" stroke-width="0.5pt" stroke-dasharray="none" points="72.800,373.800 72.800,31.500 "/>
  <g transform="translate(64.120,380.100)">
    <g transform="rotate(-0.0)">
      <text x="0.000" y="0.000" font-family="Helvetica" text-anchor="end" font-size="14pt" fill="#000000" >0.1</text>
    </g>
  </g>
  <g transform="translate(64.120,342.067)">
    <g transform="rotate(-0.0)">
      <text x="0.000" y="0.000" font-family="Helvetica" text-anchor="end" font-size="14pt" fill="#000000" >0.2</text>
    </g>
  </g>
  <g transform="translate(64.120,304.033)">
    <g transform="rotate(-0.0)">
      <text x="0.000" y="0.000" font-family="Helvetica" text-anchor="end" font-size="14pt" fill="#000000" >0.3</text>
    </g>
  </g>
  <g transform="translate(64.120,266.000)">
    <g transform="rotate(-0.0)">
      <text x="0.000" y="0.000" font-family="Helvetica" text-anchor="end" font-size="14pt" fill="#000000" >0.4</text>
    </g>
  </g>
  <g transform="translate(64.120,227.967)">
    <g transform="rotate(-0.0)">
      <text x="0.000" y="0.000" font-family="Helvetica" text-anchor="end" font-size="14pt" fill="#000000" >0.5</text>
    </g>
  </g>
  <g transform="translate(64.120,189.933)">
    <g transform="rotate(-0.0)">
      <text x="0.000" y="0.000" font-family="Helvetica" text-anchor="end" font-size="14pt" fill="#000000" >0.6</text>
    </g>
  </g>
  <g transform="translate(64.120,151.900)">
    <g transform="rotate(-0.0)">
      <text x="0.000" y="0.000" font-family="Helvetica" text-anchor="end" font-size="14pt" fill="#000000" >0.7</text>
    </g>
  </g>
  <g transform="translate(64.120,113.867)">
    <g transform="rotate(-0.0)">
      <text x="0.000" y="0.000" font-family="Helvetica" text-anchor="end" font-size="14pt" fill="#000000" >0.8</text>
    </g>
  </g>
  <g transform="translate(64.120,75.833)">
    <g transform="rotate(-0.0)">
      <text x="0.000" y="0.000" font-family="Helvetica" text-anchor="end" font-size="14pt" fill="#000000" >0.9</text>
    </g>
  </g>
  <g transform="translate(64.120,37.800)">
    <g transform="rotate(-0.0)">
      <text x="0.000" y="0.000" font-family="Helvetica" text-anchor="end" font-size="14pt" fill="#000000" >1</text>
    </g>
  </g>
      <polyline fill="none" stroke="#000000" stroke-width="0.5pt" stroke-dasharray="none" points="72.800,373.800 72.800,370.377 "/>
      <polyline fill="none" stroke="#000000" stroke-width="0.5pt" stroke-dasharray="none" points="72.800,373.800 72.800,370.377 "/>
      <polyline fill="none" stroke="#000000" stroke-width="0.5pt" stroke-dasharray="none" points="72.800,373.800 72.800,370.377 "/>
      <polyline fill="none" stroke="#000000" stroke-width="0.5pt" stroke-dasharray="none" points="72.800,373.800 72.800,373.800 "/>
    </g>
  </g>
  </g>
</svg>
