<?xml version="1.0" encoding="UTF-8" standalone="no"?>
<svg xmlns="http://www.w3.org/2000/svg"
     xmlns:xlink="http://www.w3.org/1999/xlink"
     width="576px" height="432px" viewBox="0 0 576 432">
<title>gl2ps_renderer figure</title>
<desc>
Creator: GL2PS 1.3.8, (C) 1999-2012 C. Geuzaine
For: Octave
CreationDate: Wed Nov  1 15:50:20 2017
</desc>
<defs>
</defs>
<polygon fill="#ffffff" points="0,0 576,0 576,432 0,432"/>
<g shape-rendering="crispEdges">
<polygon fill="#ffffff" points="0,432 576,432 576,0 0,0"/>
<clipPath id="cp00576432">
  <polygon points="0,432 576,432 576,0 0,0"/>
</clipPath>
<g clip-path="url(#cp00576432)">
<polyline fill="none" stroke="#262626" stroke-width="0.5" points="74.88,384.48 74.88,380.015"/>
<polyline fill="none" stroke="#262626" stroke-width="0.5" points="521.28,384.48 521.28,380.015"/>
<text fill="#262626" x="74.88" y="389.481" font-size="10" text-anchor="middle" baseline-shift="-10" font-family="Helvetica">-10</text>
<text fill="#262626" x="149.28" y="389.481" font-size="10" text-anchor="middle" baseline-shift="-10" font-family="Helvetica">-5</text>
<text fill="#262626" x="223.68" y="389.481" font-size="10" text-anchor="middle" baseline-shift="-10" font-family="Helvetica">0</text>
<text fill="#262626" x="298.08" y="389.481" font-size="10" text-anchor="middle" baseline-shift="-10" font-family="Helvetica">5</text>
<text fill="#262626" x="372.48" y="389.481" font-size="10" text-anchor="middle" baseline-shift="-10" font-family="Helvetica">10</text>
<text fill="#262626" x="446.88" y="389.481" font-size="10" text-anchor="middle" baseline-shift="-10" font-family="Helvetica">15</text>
<text fill="#262626" x="521.28" y="389.481" font-size="10" text-anchor="middle" baseline-shift="-10" font-family="Helvetica">20</text>
<polyline fill="none" stroke="#262626" stroke-width="0.5" points="74.88,384.48 79.348,384.48"/>
<polyline fill="none" stroke="#262626" stroke-width="0.5" points="74.88,32.4 79.348,32.4"/>
<text fill="#262626" x="69.8755" y="384.48" font-size="10" text-anchor="end" baseline-shift="-5" font-family="Helvetica">0</text>
<text fill="#262626" x="69.8755" y="314.064" font-size="10" text-anchor="end" baseline-shift="-5" font-family="Helvetica">0.2</text>
<text fill="#262626" x="69.8755" y="243.648" font-size="10" text-anchor="end" baseline-shift="-5" font-family="Helvetica">0.4</text>
<text fill="#262626" x="69.8755" y="173.232" font-size="10" text-anchor="end" baseline-shift="-5" font-family="Helvetica">0.6</text>
<text fill="#262626" x="69.8755" y="102.816" font-size="10" text-anchor="end" baseline-shift="-5" font-family="Helvetica">0.8</text>
<text fill="#262626" x="69.8755" y="32.4" font-size="10" text-anchor="end" baseline-shift="-5" font-family="Helvetica">1</text>
<polyline fill="none" stroke="#262626" stroke-width="0.5" stroke-dasharray="16,0" points="74.88,384.48 521.28,384.48"/>
<polyline fill="none" stroke="#262626" stroke-width="0.5" stroke-dasharray="16,0" points="74.88,384.48 74.88,32.4"/>
<polyline fill="none" stroke="#000000" stroke-width="2" points="123.02,253.953 122.352,256.01 120.602,257.282 118.438,257.282 116.688,256.01 116.02,253.953 116.688,251.896 118.438,250.624 120.602,250.624 122.352,251.896 123.02,253.953"/>
<polyline fill="none" stroke="#000000" stroke-width="2" points="137.9,109.999 137.232,112.056 135.482,113.328 133.318,113.328 131.568,112.056 130.9,109.999 131.568,107.942 133.318,106.671 135.482,106.671 137.232,107.942 137.9,109.999"/>
<polyline fill="none" stroke="#000000" stroke-width="2" points="152.78,44.4395 152.112,46.4968 150.362,47.7682 148.198,47.7682 146.448,46.4968 145.78,44.4395 146.448,42.3823 148.198,41.1108 150.362,41.1108 152.112,42.3823 152.78,44.4395"/>
<polyline fill="none" stroke="#000000" stroke-width="2" points="167.66,35.334 166.992,37.3912 165.242,38.6627 163.078,38.6627 161.328,37.3912 160.66,35.334 161.328,33.2767 163.078,32.0053 165.242,32.0053 166.992,33.2767 167.66,35.334"/>
<polyline fill="none" stroke="#000000" stroke-width="2" points="175.54,32.4 176.208,30.3427 177.958,29.0713 180.122,29.0713 181.872,30.3427 182.54,32.4"/>
<polyline fill="none" stroke="#000000" stroke-width="2" points="212.3,35.4352 211.632,37.4924 209.882,38.7639 207.718,38.7639 205.968,37.4924 205.3,35.4352"/>
<polyline fill="none" stroke="#000000" stroke-width="2" points="119.52,166.798 116.02,173.798 123.02,173.798 119.52,166.798"/>
<polyline fill="none" stroke="#000000" stroke-width="2" points="134.4,93.448 130.9,100.448 137.9,100.448 134.4,93.448"/>
<polyline fill="none" stroke="#000000" stroke-width="2" points="149.28,75.9452 145.78,82.9452 152.78,82.9452 149.28,75.9452"/>
<polyline fill="none" stroke="#000000" stroke-width="2" points="164.16,52.6755 160.66,59.6755 167.66,59.6755 164.16,52.6755"/>
<polyline fill="none" stroke="#000000" stroke-width="2" points="179.04,67.7502 175.54,74.7502 182.54,74.7502 179.04,67.7502"/>
<polyline fill="none" stroke="#000000" stroke-width="2" points="193.92,81.712 190.42,88.712 197.42,88.712 193.92,81.712"/>
<polyline fill="none" stroke="#000000" stroke-width="2" points="208.8,49.438 205.3,56.438 212.3,56.438 208.8,49.438"/>
<polyline fill="none" stroke="#000000" stroke-width="2" points="223.68,40.636 220.18,47.636 227.18,47.636 223.68,40.636"/>
<polyline fill="none" stroke="#000000" stroke-width="2" points="71.38,220.94 78.38,217.44 78.38,224.44 71.38,220.94"/>
<polyline fill="none" stroke="#000000" stroke-width="2" points="86.26,303.958 93.26,300.458 93.26,307.458 86.26,303.958"/>
<polyline fill="none" stroke="#000000" stroke-width="2" points="101.14,280.171 108.14,276.671 108.14,283.671 101.14,280.171"/>
<polyline fill="none" stroke="#000000" stroke-width="2" points="116.02,165.117 123.02,161.617 123.02,168.617"/>
<polyline fill="none" stroke="#000000" stroke-width="2" points="130.9,164.506 137.9,161.006 137.9,168.006 130.9,164.506"/>
<polyline fill="none" stroke="#000000" stroke-width="2" points="145.78,143.892 152.78,140.392 152.78,147.392 145.78,143.892"/>
<polyline fill="none" stroke="#000000" stroke-width="2" points="160.66,130.031 167.66,126.531 167.66,133.531 160.66,130.031"/>
<polyline fill="none" stroke="#000000" stroke-width="2" points="175.54,101.4 182.54,97.8996 182.54,104.9 175.54,101.4"/>
<polyline fill="none" stroke="#000000" stroke-width="2" points="190.42,52.938 197.42,49.438 197.42,56.438 190.42,52.938"/>
<polyline fill="none" stroke="#000000" stroke-width="2" points="205.3,79.344 212.3,75.844 212.3,82.844 205.3,79.344"/>
<polyline fill="none" stroke="#000000" stroke-width="2" points="220.18,91.08 227.18,87.58 227.18,94.58 220.18,91.08"/>
<polyline fill="none" stroke="#000000" stroke-width="2" points="86.26,213.025 86.26,220.025 93.26,220.025 93.26,213.025 86.26,213.025"/>
<polyline fill="none" stroke="#000000" stroke-width="2" points="101.14,215.158 101.14,222.158 108.14,222.158 108.14,215.158 101.14,215.158"/>
<polyline fill="none" stroke="#000000" stroke-width="2" points="116.02,163.56 116.02,170.56 123.02,170.56 123.02,163.56 116.02,163.56"/>
<polyline fill="none" stroke="#000000" stroke-width="2" points="130.9,89.5601 130.9,96.5601 137.9,96.5601 137.9,89.5601 130.9,89.5601"/>
<polyline fill="none" stroke="#000000" stroke-width="2" points="145.78,93.7515 145.78,100.752 152.78,100.752 152.78,93.7515 145.78,93.7515"/>
<polyline fill="none" stroke="#000000" stroke-width="2" points="160.66,49.8427 160.66,56.8427 167.66,56.8427 167.66,49.8427 160.66,49.8427"/>
<polyline fill="none" stroke="#000000" stroke-width="2" points="175.54,31.834 175.54,38.834 182.54,38.834 182.54,31.834 175.54,31.834"/>
<polyline fill="none" stroke="#000000" stroke-width="2" points="190.42,28.9 190.42,35.9 197.42,35.9 197.42,28.9 190.42,28.9"/>
<polyline fill="none" stroke="#000000" stroke-width="2" points="205.3,28.9 205.3,35.9 212.3,35.9 212.3,28.9 205.3,28.9"/>
<polyline fill="none" stroke="#000000" stroke-width="2" points="220.18,28.9 220.18,35.9 227.18,35.9 227.18,28.9 220.18,28.9"/>
<polyline fill="none" stroke="#000000" stroke-width="2" points="227.18,345.36 226.512,347.417 224.762,348.689 222.598,348.689 220.848,347.417 220.18,345.36 220.848,343.303 222.598,342.031 224.762,342.031 226.512,343.303 227.18,345.36"/>
<polyline fill="none" stroke="#000000" stroke-width="2" points="242.06,372.465 241.392,374.522 239.642,375.793 237.478,375.793 235.728,374.522 235.06,372.465 235.728,370.407 237.478,369.136 239.642,369.136 241.392,370.407 242.06,372.465"/>
<polyline fill="none" stroke="#000000" stroke-width="2" points="256.94,368.832 256.272,370.889 254.522,372.161 252.358,372.161 250.608,370.889 249.94,368.832 250.608,366.775 252.358,365.503 254.522,365.503 256.272,366.775 256.94,368.832"/>
<polyline fill="none" stroke="#000000" stroke-width="2" points="271.82,341.043 271.152,343.101 269.402,344.372 267.238,344.372 265.488,343.101 264.82,341.043 265.488,338.986 267.238,337.715 269.402,337.715 271.152,338.986 271.82,341.043"/>
<polyline fill="none" stroke="#000000" stroke-width="2" points="286.7,352.066 286.032,354.124 284.282,355.395 282.118,355.395 280.368,354.124 279.7,352.066 280.368,350.009 282.118,348.738 284.282,348.738 286.032,350.009 286.7,352.066"/>
<polyline fill="none" stroke="#000000" stroke-width="2" points="301.58,349.137 300.912,351.194 299.162,352.466 296.998,352.466 295.248,351.194 294.58,349.137 295.248,347.08 296.998,345.808 299.162,345.808 300.912,347.08 301.58,349.137"/>
<polyline fill="none" stroke="#000000" stroke-width="2" points="316.46,325.8 315.792,327.857 314.042,329.129 311.878,329.129 310.128,327.857 309.46,325.8 310.128,323.743 311.878,322.471 314.042,322.471 315.792,323.743 316.46,325.8"/>
<polyline fill="none" stroke="#000000" stroke-width="2" points="331.34,200.616 330.672,202.673 328.922,203.945 326.758,203.945 325.008,202.673 324.34,200.616 325.008,198.559 326.758,197.287 328.922,197.287 330.672,198.559 331.34,200.616"/>
<polyline fill="none" stroke="#000000" stroke-width="2" points="346.22,145.848 345.552,147.905 343.802,149.177 341.638,149.177 339.888,147.905 339.22,145.848 339.888,143.791 341.638,142.519 343.802,142.519 345.552,143.791 346.22,145.848"/>
<polyline fill="none" stroke="#000000" stroke-width="2" points="361.1,92.1592 360.432,94.2164 358.682,95.4879 356.518,95.4879 354.768,94.2164 354.1,92.1592 354.768,90.1019 356.518,88.8304 358.682,88.8304 360.432,90.1019 361.1,92.1592"/>
<polyline fill="none" stroke="#000000" stroke-width="2" points="375.98,102.816 375.312,104.873 373.562,106.145 371.398,106.145 369.648,104.873 368.98,102.816 369.648,100.759 371.398,99.4873 373.562,99.4873 375.312,100.759 375.98,102.816"/>
<polyline fill="none" stroke="#000000" stroke-width="2" points="390.86,135.596 390.192,137.653 388.442,138.925 386.278,138.925 384.528,137.653 383.86,135.596 384.528,133.539 386.278,132.267 388.442,132.267 390.192,133.539 390.86,135.596"/>
<polyline fill="none" stroke="#000000" stroke-width="2" points="405.74,182.675 405.072,184.732 403.322,186.003 401.158,186.003 399.408,184.732 398.74,182.675 399.408,180.618 401.158,179.346 403.322,179.346 405.072,180.618 405.74,182.675"/>
<polyline fill="none" stroke="#000000" stroke-width="2" points="420.62,182.81 419.952,184.867 418.202,186.138 416.038,186.138 414.288,184.867 413.62,182.81 414.288,180.752 416.038,179.481 418.202,179.481 419.952,180.752 420.62,182.81"/>
<polyline fill="none" stroke="#000000" stroke-width="2" points="435.5,98.904 434.832,100.961 433.082,102.233 430.918,102.233 429.168,100.961 428.5,98.904 429.168,96.8467 430.918,95.5753 433.082,95.5753 434.832,96.8467 435.5,98.904"/>
<polyline fill="none" stroke="#000000" stroke-width="2" points="450.38,94.992 449.712,97.0492 447.962,98.3207 445.798,98.3207 444.048,97.0492 443.38,94.992 444.048,92.9348 445.798,91.6633 447.962,91.6633 449.712,92.9348 450.38,94.992"/>
<polyline fill="none" stroke="#000000" stroke-width="2" points="465.26,122.376 464.592,124.433 462.842,125.705 460.678,125.705 458.928,124.433 458.26,122.376 458.928,120.319 460.678,119.047 462.842,119.047 464.592,120.319 465.26,122.376"/>
<polyline fill="none" stroke="#000000" stroke-width="2" points="223.68,333.766 220.18,340.766 227.18,340.766 223.68,333.766"/>
<polyline fill="none" stroke="#000000" stroke-width="2" points="238.56,314.476 235.06,321.476 242.06,321.476 238.56,314.476"/>
<polyline fill="none" stroke="#000000" stroke-width="2" points="253.44,228.412 249.94,235.412 256.94,235.412 253.44,228.412"/>
<polyline fill="none" stroke="#000000" stroke-width="2" points="268.32,207.503 264.82,214.503 271.82,214.503 268.32,207.503"/>
<polyline fill="none" stroke="#000000" stroke-width="2" points="283.2,218.43 279.7,225.43 286.7,225.43 283.2,218.43"/>
<polyline fill="none" stroke="#000000" stroke-width="2" points="298.08,221.128 294.58,228.128 301.58,228.128 298.08,221.128"/>
<polyline fill="none" stroke="#000000" stroke-width="2" points="312.96,186.729 309.46,193.729 316.46,193.729 312.96,186.729"/>
<polyline fill="none" stroke="#000000" stroke-width="2" points="327.84,210.606 324.34,217.606 331.34,217.606 327.84,210.606"/>
<polyline fill="none" stroke="#000000" stroke-width="2" points="342.72,197.116 339.22,204.116 346.22,204.116 342.72,197.116"/>
<polyline fill="none" stroke="#000000" stroke-width="2" points="357.6,146.26 354.1,153.26 361.1,153.26 357.6,146.26"/>
<polyline fill="none" stroke="#000000" stroke-width="2" points="372.48,177.556 368.98,184.556 375.98,184.556 372.48,177.556"/>
<polyline fill="none" stroke="#000000" stroke-width="2" points="387.36,139.785 383.86,146.785 390.86,146.785 387.36,139.785"/>
<polyline fill="none" stroke="#000000" stroke-width="2" points="402.24,76.2487 398.74,83.2487 405.74,83.2487 402.24,76.2487"/>
<polyline fill="none" stroke="#000000" stroke-width="2" points="417.12,87.58 413.62,94.58 420.62,94.58 417.12,87.58"/>
<polyline fill="none" stroke="#000000" stroke-width="2" points="432,64.6476 428.5,71.6476 435.5,71.6476 432,64.6476"/>
<polyline fill="none" stroke="#000000" stroke-width="2" points="446.88,80.0258 443.38,87.0258 450.38,87.0258 446.88,80.0258"/>
<polyline fill="none" stroke="#000000" stroke-width="2" points="461.76,81.3748 458.26,88.3748 465.26,88.3748 461.76,81.3748"/>
<polyline fill="none" stroke="#000000" stroke-width="2" points="227.18,380.98 227.18,387.98"/>
<polyline fill="none" stroke="#000000" stroke-width="2" points="242.06,380.98 242.06,387.98"/>
<polyline fill="none" stroke="#000000" stroke-width="2" points="249.94,361.008 256.94,357.508 256.94,364.508 249.94,361.008"/>
<polyline fill="none" stroke="#000000" stroke-width="2" points="264.82,325.8 271.82,322.3 271.82,329.3 264.82,325.8"/>
<polyline fill="none" stroke="#000000" stroke-width="2" points="279.7,302.328 286.7,298.828 286.7,305.828 279.7,302.328"/>
<polyline fill="none" stroke="#000000" stroke-width="2" points="294.58,253.9 301.58,250.4 301.58,257.4 294.58,253.9"/>
<polyline fill="none" stroke="#000000" stroke-width="2" points="309.46,220.176 316.46,216.676 316.46,223.676 309.46,220.176"/>
<polyline fill="none" stroke="#000000" stroke-width="2" points="324.34,152.053 331.34,148.553 331.34,155.553 324.34,152.053"/>
<polyline fill="none" stroke="#000000" stroke-width="2" points="339.22,216.264 346.22,212.764 346.22,219.764 339.22,216.264"/>
<polyline fill="none" stroke="#000000" stroke-width="2" points="354.1,200.616 361.1,197.116 361.1,204.116 354.1,200.616"/>
<polyline fill="none" stroke="#000000" stroke-width="2" points="368.98,196.434 375.98,192.934 375.98,199.934 368.98,196.434"/>
<polyline fill="none" stroke="#000000" stroke-width="2" points="383.86,122.376 390.86,118.876 390.86,125.876 383.86,122.376"/>
<polyline fill="none" stroke="#000000" stroke-width="2" points="398.74,134.112 405.74,130.612 405.74,137.612 398.74,134.112"/>
<polyline fill="none" stroke="#000000" stroke-width="2" points="413.62,87.8425 420.62,84.3425 420.62,91.3425 413.62,87.8425"/>
<polyline fill="none" stroke="#000000" stroke-width="2" points="428.5,60.4585 435.5,56.9585 435.5,63.9585 428.5,60.4585"/>
<polyline fill="none" stroke="#000000" stroke-width="2" points="443.38,118.425 450.38,114.925 450.38,121.925 443.38,118.425"/>
<polyline fill="none" stroke="#000000" stroke-width="2" points="458.26,91.6196 465.26,88.1196 465.26,95.1196 458.26,91.6196"/>
<polyline fill="none" stroke="#000000" stroke-width="2" points="220.18,380.98 220.18,387.98 227.18,387.98 227.18,380.98 220.18,380.98"/>
<polyline fill="none" stroke="#000000" stroke-width="2" points="235.06,380.98 235.06,387.98 242.06,387.98 242.06,380.98 235.06,380.98"/>
<polyline fill="none" stroke="#000000" stroke-width="2" points="249.94,313.127 249.94,320.127 256.94,320.127 256.94,313.127 249.94,313.127"/>
<polyline fill="none" stroke="#000000" stroke-width="2" points="264.82,231.245 264.82,238.245 271.82,238.245 271.82,231.245 264.82,231.245"/>
<polyline fill="none" stroke="#000000" stroke-width="2" points="279.7,167.978 279.7,174.978 286.7,174.978 286.7,167.978 279.7,167.978"/>
<polyline fill="none" stroke="#000000" stroke-width="2" points="294.58,28.9 294.58,35.9 301.58,35.9 301.58,28.9 294.58,28.9"/>
<polyline fill="none" stroke="#000000" stroke-width="2" points="309.46,32.812 309.46,39.812 316.46,39.812 316.46,32.812 309.46,32.812"/>
<polyline fill="none" stroke="#000000" stroke-width="2" points="324.34,28.9 324.34,35.9 331.34,35.9 331.34,28.9 324.34,28.9"/>
<polygon fill="#ffffff" points="74.88,384.48 521.28,384.48 74.88,32.4"/>
<polygon fill="#ffffff" points="521.28,384.48 521.28,32.4 74.88,32.4"/>
<polygon fill="#000000" points="122.352,256.01 120.602,257.282 123.02,253.953"/>
<polygon fill="#000000" points="120.602,257.282 118.438,257.282 123.02,253.953"/>
<polygon fill="#000000" points="118.438,257.282 116.688,256.01 123.02,253.953"/>
<polygon fill="#000000" points="116.688,256.01 116.02,253.953 123.02,253.953"/>
<polygon fill="#000000" points="116.02,253.953 116.688,251.896 123.02,253.953"/>
<polygon fill="#000000" points="116.688,251.896 118.438,250.624 123.02,253.953"/>
<polygon fill="#000000" points="118.438,250.624 120.602,250.624 123.02,253.953"/>
<polygon fill="#000000" points="120.602,250.624 122.352,251.896 123.02,253.953"/>
<polygon fill="#000000" points="137.232,112.056 135.482,113.328 137.9,109.999"/>
<polygon fill="#000000" points="135.482,113.328 133.318,113.328 137.9,109.999"/>
<polygon fill="#000000" points="133.318,113.328 131.568,112.056 137.9,109.999"/>
<polygon fill="#000000" points="131.568,112.056 130.9,109.999 137.9,109.999"/>
<polygon fill="#000000" points="130.9,109.999 131.568,107.942 137.9,109.999"/>
<polygon fill="#000000" points="131.568,107.942 133.318,106.671 137.9,109.999"/>
<polygon fill="#000000" points="133.318,106.671 135.482,106.671 137.9,109.999"/>
<polygon fill="#000000" points="135.482,106.671 137.232,107.942 137.9,109.999"/>
<polygon fill="#000000" points="152.112,46.4968 150.362,47.7682 152.78,44.4395"/>
<polygon fill="#000000" points="150.362,47.7682 148.198,47.7682 152.78,44.4395"/>
<polygon fill="#000000" points="148.198,47.7682 146.448,46.4968 152.78,44.4395"/>
<polygon fill="#000000" points="146.448,46.4968 145.78,44.4395 152.78,44.4395"/>
<polygon fill="#000000" points="145.78,44.4395 146.448,42.3823 152.78,44.4395"/>
<polygon fill="#000000" points="146.448,42.3823 148.198,41.1108 152.78,44.4395"/>
<polygon fill="#000000" points="148.198,41.1108 150.362,41.1108 152.78,44.4395"/>
<polygon fill="#000000" points="150.362,41.1108 152.112,42.3823 152.78,44.4395"/>
<polygon fill="#000000" points="166.992,37.3912 165.242,38.6627 167.66,35.334"/>
<polygon fill="#000000" points="165.242,38.6627 163.078,38.6627 167.66,35.334"/>
<polygon fill="#000000" points="163.078,38.6627 161.328,37.3912 167.66,35.334"/>
<polygon fill="#000000" points="161.328,37.3912 160.66,35.334 167.66,35.334"/>
<polygon fill="#000000" points="160.66,35.334 161.328,33.2767 167.66,35.334"/>
<polygon fill="#000000" points="161.328,33.2767 163.078,32.0053 167.66,35.334"/>
<polygon fill="#000000" points="163.078,32.0053 165.242,32.0053 167.66,35.334"/>
<polygon fill="#000000" points="165.242,32.0053 166.992,33.2767 167.66,35.334"/>
<polygon fill="#000000" points="175.54,32.4 176.208,30.3427 182.54,32.4"/>
<polygon fill="#000000" points="176.208,30.3427 177.958,29.0713 182.54,32.4"/>
<polygon fill="#000000" points="177.958,29.0713 180.122,29.0713 182.54,32.4"/>
<polygon fill="#000000" points="180.122,29.0713 181.872,30.3427 182.54,32.4"/>
<polygon fill="#000000" points="211.632,37.4924 209.882,38.7639 212.3,35.4352"/>
<polygon fill="#000000" points="209.882,38.7639 207.718,38.7639 212.3,35.4352"/>
<polygon fill="#000000" points="207.718,38.7639 205.968,37.4924 212.3,35.4352"/>
<polygon fill="#000000" points="205.968,37.4924 205.3,35.4352 212.3,35.4352"/>
<polygon fill="#000000" points="116.02,173.798 123.02,173.798 119.52,166.798"/>
<polygon fill="#000000" points="130.9,100.448 137.9,100.448 134.4,93.448"/>
<polygon fill="#000000" points="145.78,82.9452 152.78,82.9452 149.28,75.9452"/>
<polygon fill="#000000" points="160.66,59.6755 167.66,59.6755 164.16,52.6755"/>
<polygon fill="#000000" points="175.54,74.7502 182.54,74.7502 179.04,67.7502"/>
<polygon fill="#000000" points="190.42,88.712 197.42,88.712 193.92,81.712"/>
<polygon fill="#000000" points="205.3,56.438 212.3,56.438 208.8,49.438"/>
<polygon fill="#000000" points="220.18,47.636 227.18,47.636 223.68,40.636"/>
<polygon fill="#000000" points="78.38,217.44 78.38,224.44 71.38,220.94"/>
<polygon fill="#000000" points="93.26,300.458 93.26,307.458 86.26,303.958"/>
<polygon fill="#000000" points="108.14,276.671 108.14,283.671 101.14,280.171"/>
<polygon fill="#000000" points="123.02,161.617 123.02,168.617 116.02,165.117"/>
<polygon fill="#000000" points="137.9,161.006 137.9,168.006 130.9,164.506"/>
<polygon fill="#000000" points="152.78,140.392 152.78,147.392 145.78,143.892"/>
<polygon fill="#000000" points="167.66,126.531 167.66,133.531 160.66,130.031"/>
<polygon fill="#000000" points="182.54,97.8996 182.54,104.9 175.54,101.4"/>
<polygon fill="#000000" points="197.42,49.438 197.42,56.438 190.42,52.938"/>
<polygon fill="#000000" points="212.3,75.844 212.3,82.844 205.3,79.344"/>
<polygon fill="#000000" points="227.18,87.58 227.18,94.58 220.18,91.08"/>
<polygon fill="#000000" points="86.26,220.025 93.26,220.025 86.26,213.025"/>
<polygon fill="#000000" points="93.26,220.025 93.26,213.025 86.26,213.025"/>
<polygon fill="#000000" points="101.14,222.158 108.14,222.158 101.14,215.158"/>
<polygon fill="#000000" points="108.14,222.158 108.14,215.158 101.14,215.158"/>
<polygon fill="#000000" points="116.02,170.56 123.02,170.56 116.02,163.56"/>
<polygon fill="#000000" points="123.02,170.56 123.02,163.56 116.02,163.56"/>
<polygon fill="#000000" points="130.9,96.5601 137.9,96.5601 130.9,89.5601"/>
<polygon fill="#000000" points="137.9,96.5601 137.9,89.5601 130.9,89.5601"/>
<polygon fill="#000000" points="145.78,100.752 152.78,100.752 145.78,93.7515"/>
<polygon fill="#000000" points="152.78,100.752 152.78,93.7515 145.78,93.7515"/>
<polygon fill="#000000" points="160.66,56.8427 167.66,56.8427 160.66,49.8427"/>
<polygon fill="#000000" points="167.66,56.8427 167.66,49.8427 160.66,49.8427"/>
<polygon fill="#000000" points="175.54,38.834 182.54,38.834 175.54,31.834"/>
<polygon fill="#000000" points="182.54,38.834 182.54,31.834 175.54,31.834"/>
<polygon fill="#000000" points="190.42,35.9 197.42,35.9 190.42,28.9"/>
<polygon fill="#000000" points="197.42,35.9 197.42,28.9 190.42,28.9"/>
<polygon fill="#000000" points="205.3,35.9 212.3,35.9 205.3,28.9"/>
<polygon fill="#000000" points="212.3,35.9 212.3,28.9 205.3,28.9"/>
<polygon fill="#000000" points="220.18,35.9 227.18,35.9 220.18,28.9"/>
<polygon fill="#000000" points="227.18,35.9 227.18,28.9 220.18,28.9"/>
<polygon fill="#000000" points="226.512,347.417 224.762,348.689 227.18,345.36"/>
<polygon fill="#000000" points="224.762,348.689 222.598,348.689 227.18,345.36"/>
<polygon fill="#000000" points="222.598,348.689 220.848,347.417 227.18,345.36"/>
<polygon fill="#000000" points="220.848,347.417 220.18,345.36 227.18,345.36"/>
<polygon fill="#000000" points="220.18,345.36 220.848,343.303 227.18,345.36"/>
<polygon fill="#000000" points="220.848,343.303 222.598,342.031 227.18,345.36"/>
<polygon fill="#000000" points="222.598,342.031 224.762,342.031 227.18,345.36"/>
<polygon fill="#000000" points="224.762,342.031 226.512,343.303 227.18,345.36"/>
<polygon fill="#000000" points="241.392,374.522 239.642,375.793 242.06,372.465"/>
<polygon fill="#000000" points="239.642,375.793 237.478,375.793 242.06,372.465"/>
<polygon fill="#000000" points="237.478,375.793 235.728,374.522 242.06,372.465"/>
<polygon fill="#000000" points="235.728,374.522 235.06,372.465 242.06,372.465"/>
<polygon fill="#000000" points="235.06,372.465 235.728,370.407 242.06,372.465"/>
<polygon fill="#000000" points="235.728,370.407 237.478,369.136 242.06,372.465"/>
<polygon fill="#000000" points="237.478,369.136 239.642,369.136 242.06,372.465"/>
<polygon fill="#000000" points="239.642,369.136 241.392,370.407 242.06,372.465"/>
<polygon fill="#000000" points="256.272,370.889 254.522,372.161 256.94,368.832"/>
<polygon fill="#000000" points="254.522,372.161 252.358,372.161 256.94,368.832"/>
<polygon fill="#000000" points="252.358,372.161 250.608,370.889 256.94,368.832"/>
<polygon fill="#000000" points="250.608,370.889 249.94,368.832 256.94,368.832"/>
<polygon fill="#000000" points="249.94,368.832 250.608,366.775 256.94,368.832"/>
<polygon fill="#000000" points="250.608,366.775 252.358,365.503 256.94,368.832"/>
<polygon fill="#000000" points="252.358,365.503 254.522,365.503 256.94,368.832"/>
<polygon fill="#000000" points="254.522,365.503 256.272,366.775 256.94,368.832"/>
<polygon fill="#000000" points="271.152,343.101 269.402,344.372 271.82,341.043"/>
<polygon fill="#000000" points="269.402,344.372 267.238,344.372 271.82,341.043"/>
<polygon fill="#000000" points="267.238,344.372 265.488,343.101 271.82,341.043"/>
<polygon fill="#000000" points="265.488,343.101 264.82,341.043 271.82,341.043"/>
<polygon fill="#000000" points="264.82,341.043 265.488,338.986 271.82,341.043"/>
<polygon fill="#000000" points="265.488,338.986 267.238,337.715 271.82,341.043"/>
<polygon fill="#000000" points="267.238,337.715 269.402,337.715 271.82,341.043"/>
<polygon fill="#000000" points="269.402,337.715 271.152,338.986 271.82,341.043"/>
<polygon fill="#000000" points="286.032,354.124 284.282,355.395 286.7,352.066"/>
<polygon fill="#000000" points="284.282,355.395 282.118,355.395 286.7,352.066"/>
<polygon fill="#000000" points="282.118,355.395 280.368,354.124 286.7,352.066"/>
<polygon fill="#000000" points="280.368,354.124 279.7,352.066 286.7,352.066"/>
<polygon fill="#000000" points="279.7,352.066 280.368,350.009 286.7,352.066"/>
<polygon fill="#000000" points="280.368,350.009 282.118,348.738 286.7,352.066"/>
<polygon fill="#000000" points="282.118,348.738 284.282,348.738 286.7,352.066"/>
<polygon fill="#000000" points="284.282,348.738 286.032,350.009 286.7,352.066"/>
<polygon fill="#000000" points="300.912,351.194 299.162,352.466 301.58,349.137"/>
<polygon fill="#000000" points="299.162,352.466 296.998,352.466 301.58,349.137"/>
<polygon fill="#000000" points="296.998,352.466 295.248,351.194 301.58,349.137"/>
<polygon fill="#000000" points="295.248,351.194 294.58,349.137 301.58,349.137"/>
<polygon fill="#000000" points="294.58,349.137 295.248,347.08 301.58,349.137"/>
<polygon fill="#000000" points="295.248,347.08 296.998,345.808 301.58,349.137"/>
<polygon fill="#000000" points="296.998,345.808 299.162,345.808 301.58,349.137"/>
<polygon fill="#000000" points="299.162,345.808 300.912,347.08 301.58,349.137"/>
<polygon fill="#000000" points="315.792,327.857 314.042,329.129 316.46,325.8"/>
<polygon fill="#000000" points="314.042,329.129 311.878,329.129 316.46,325.8"/>
<polygon fill="#000000" points="311.878,329.129 310.128,327.857 316.46,325.8"/>
<polygon fill="#000000" points="310.128,327.857 309.46,325.8 316.46,325.8"/>
<polygon fill="#000000" points="309.46,325.8 310.128,323.743 316.46,325.8"/>
<polygon fill="#000000" points="310.128,323.743 311.878,322.471 316.46,325.8"/>
<polygon fill="#000000" points="311.878,322.471 314.042,322.471 316.46,325.8"/>
<polygon fill="#000000" points="314.042,322.471 315.792,323.743 316.46,325.8"/>
<polygon fill="#000000" points="330.672,202.673 328.922,203.945 331.34,200.616"/>
<polygon fill="#000000" points="328.922,203.945 326.758,203.945 331.34,200.616"/>
<polygon fill="#000000" points="326.758,203.945 325.008,202.673 331.34,200.616"/>
<polygon fill="#000000" points="325.008,202.673 324.34,200.616 331.34,200.616"/>
<polygon fill="#000000" points="324.34,200.616 325.008,198.559 331.34,200.616"/>
<polygon fill="#000000" points="325.008,198.559 326.758,197.287 331.34,200.616"/>
<polygon fill="#000000" points="326.758,197.287 328.922,197.287 331.34,200.616"/>
<polygon fill="#000000" points="328.922,197.287 330.672,198.559 331.34,200.616"/>
<polygon fill="#000000" points="345.552,147.905 343.802,149.177 346.22,145.848"/>
<polygon fill="#000000" points="343.802,149.177 341.638,149.177 346.22,145.848"/>
<polygon fill="#000000" points="341.638,149.177 339.888,147.905 346.22,145.848"/>
<polygon fill="#000000" points="339.888,147.905 339.22,145.848 346.22,145.848"/>
<polygon fill="#000000" points="339.22,145.848 339.888,143.791 346.22,145.848"/>
<polygon fill="#000000" points="339.888,143.791 341.638,142.519 346.22,145.848"/>
<polygon fill="#000000" points="341.638,142.519 343.802,142.519 346.22,145.848"/>
<polygon fill="#000000" points="343.802,142.519 345.552,143.791 346.22,145.848"/>
<polygon fill="#000000" points="360.432,94.2164 358.682,95.4879 361.1,92.1592"/>
<polygon fill="#000000" points="358.682,95.4879 356.518,95.4879 361.1,92.1592"/>
<polygon fill="#000000" points="356.518,95.4879 354.768,94.2164 361.1,92.1592"/>
<polygon fill="#000000" points="354.768,94.2164 354.1,92.1592 361.1,92.1592"/>
<polygon fill="#000000" points="354.1,92.1592 354.768,90.1019 361.1,92.1592"/>
<polygon fill="#000000" points="354.768,90.1019 356.518,88.8304 361.1,92.1592"/>
<polygon fill="#000000" points="356.518,88.8304 358.682,88.8304 361.1,92.1592"/>
<polygon fill="#000000" points="358.682,88.8304 360.432,90.1019 361.1,92.1592"/>
<polygon fill="#000000" points="375.312,104.873 373.562,106.145 375.98,102.816"/>
<polygon fill="#000000" points="373.562,106.145 371.398,106.145 375.98,102.816"/>
<polygon fill="#000000" points="371.398,106.145 369.648,104.873 375.98,102.816"/>
<polygon fill="#000000" points="369.648,104.873 368.98,102.816 375.98,102.816"/>
<polygon fill="#000000" points="368.98,102.816 369.648,100.759 375.98,102.816"/>
<polygon fill="#000000" points="369.648,100.759 371.398,99.4873 375.98,102.816"/>
<polygon fill="#000000" points="371.398,99.4873 373.562,99.4873 375.98,102.816"/>
<polygon fill="#000000" points="373.562,99.4873 375.312,100.759 375.98,102.816"/>
<polygon fill="#000000" points="390.192,137.653 388.442,138.925 390.86,135.596"/>
<polygon fill="#000000" points="388.442,138.925 386.278,138.925 390.86,135.596"/>
<polygon fill="#000000" points="386.278,138.925 384.528,137.653 390.86,135.596"/>
<polygon fill="#000000" points="384.528,137.653 383.86,135.596 390.86,135.596"/>
<polygon fill="#000000" points="383.86,135.596 384.528,133.539 390.86,135.596"/>
<polygon fill="#000000" points="384.528,133.539 386.278,132.267 390.86,135.596"/>
<polygon fill="#000000" points="386.278,132.267 388.442,132.267 390.86,135.596"/>
<polygon fill="#000000" points="388.442,132.267 390.192,133.539 390.86,135.596"/>
<polygon fill="#000000" points="405.072,184.732 403.322,186.003 405.74,182.675"/>
<polygon fill="#000000" points="403.322,186.003 401.158,186.003 405.74,182.675"/>
<polygon fill="#000000" points="401.158,186.003 399.408,184.732 405.74,182.675"/>
<polygon fill="#000000" points="399.408,184.732 398.74,182.675 405.74,182.675"/>
<polygon fill="#000000" points="398.74,182.675 399.408,180.618 405.74,182.675"/>
<polygon fill="#000000" points="399.408,180.618 401.158,179.346 405.74,182.675"/>
<polygon fill="#000000" points="401.158,179.346 403.322,179.346 405.74,182.675"/>
<polygon fill="#000000" points="403.322,179.346 405.072,180.618 405.74,182.675"/>
<polygon fill="#000000" points="419.952,184.867 418.202,186.138 420.62,182.81"/>
<polygon fill="#000000" points="418.202,186.138 416.038,186.138 420.62,182.81"/>
<polygon fill="#000000" points="416.038,186.138 414.288,184.867 420.62,182.81"/>
<polygon fill="#000000" points="414.288,184.867 413.62,182.81 420.62,182.81"/>
<polygon fill="#000000" points="413.62,182.81 414.288,180.752 420.62,182.81"/>
<polygon fill="#000000" points="414.288,180.752 416.038,179.481 420.62,182.81"/>
<polygon fill="#000000" points="416.038,179.481 418.202,179.481 420.62,182.81"/>
<polygon fill="#000000" points="418.202,179.481 419.952,180.752 420.62,182.81"/>
<polygon fill="#000000" points="434.832,100.961 433.082,102.233 435.5,98.904"/>
<polygon fill="#000000" points="433.082,102.233 430.918,102.233 435.5,98.904"/>
<polygon fill="#000000" points="430.918,102.233 429.168,100.961 435.5,98.904"/>
<polygon fill="#000000" points="429.168,100.961 428.5,98.904 435.5,98.904"/>
<polygon fill="#000000" points="428.5,98.904 429.168,96.8467 435.5,98.904"/>
<polygon fill="#000000" points="429.168,96.8467 430.918,95.5753 435.5,98.904"/>
<polygon fill="#000000" points="430.918,95.5753 433.082,95.5753 435.5,98.904"/>
<polygon fill="#000000" points="433.082,95.5753 434.832,96.8467 435.5,98.904"/>
<polygon fill="#000000" points="449.712,97.0492 447.962,98.3207 450.38,94.992"/>
<polygon fill="#000000" points="447.962,98.3207 445.798,98.3207 450.38,94.992"/>
<polygon fill="#000000" points="445.798,98.3207 444.048,97.0492 450.38,94.992"/>
<polygon fill="#000000" points="444.048,97.0492 443.38,94.992 450.38,94.992"/>
<polygon fill="#000000" points="443.38,94.992 444.048,92.9348 450.38,94.992"/>
<polygon fill="#000000" points="444.048,92.9348 445.798,91.6633 450.38,94.992"/>
<polygon fill="#000000" points="445.798,91.6633 447.962,91.6633 450.38,94.992"/>
<polygon fill="#000000" points="447.962,91.6633 449.712,92.9348 450.38,94.992"/>
<polygon fill="#000000" points="464.592,124.433 462.842,125.705 465.26,122.376"/>
<polygon fill="#000000" points="462.842,125.705 460.678,125.705 465.26,122.376"/>
<polygon fill="#000000" points="460.678,125.705 458.928,124.433 465.26,122.376"/>
<polygon fill="#000000" points="458.928,124.433 458.26,122.376 465.26,122.376"/>
<polygon fill="#000000" points="458.26,122.376 458.928,120.319 465.26,122.376"/>
<polygon fill="#000000" points="458.928,120.319 460.678,119.047 465.26,122.376"/>
<polygon fill="#000000" points="460.678,119.047 462.842,119.047 465.26,122.376"/>
<polygon fill="#000000" points="462.842,119.047 464.592,120.319 465.26,122.376"/>
<polygon fill="#000000" points="220.18,340.766 227.18,340.766 223.68,333.766"/>
<polygon fill="#000000" points="235.06,321.476 242.06,321.476 238.56,314.476"/>
<polygon fill="#000000" points="249.94,235.412 256.94,235.412 253.44,228.412"/>
<polygon fill="#000000" points="264.82,214.503 271.82,214.503 268.32,207.503"/>
<polygon fill="#000000" points="279.7,225.43 286.7,225.43 283.2,218.43"/>
<polygon fill="#000000" points="294.58,228.128 301.58,228.128 298.08,221.128"/>
<polygon fill="#000000" points="309.46,193.729 316.46,193.729 312.96,186.729"/>
<polygon fill="#000000" points="324.34,217.606 331.34,217.606 327.84,210.606"/>
<polygon fill="#000000" points="339.22,204.116 346.22,204.116 342.72,197.116"/>
<polygon fill="#000000" points="354.1,153.26 361.1,153.26 357.6,146.26"/>
<polygon fill="#000000" points="368.98,184.556 375.98,184.556 372.48,177.556"/>
<polygon fill="#000000" points="383.86,146.785 390.86,146.785 387.36,139.785"/>
<polygon fill="#000000" points="398.74,83.2487 405.74,83.2487 402.24,76.2487"/>
<polygon fill="#000000" points="413.62,94.58 420.62,94.58 417.12,87.58"/>
<polygon fill="#000000" points="428.5,71.6476 435.5,71.6476 432,64.6476"/>
<polygon fill="#000000" points="443.38,87.0258 450.38,87.0258 446.88,80.0258"/>
<polygon fill="#000000" points="458.26,88.3748 465.26,88.3748 461.76,81.3748"/>
<polygon fill="#000000" points="256.94,357.508 256.94,364.508 249.94,361.008"/>
<polygon fill="#000000" points="271.82,322.3 271.82,329.3 264.82,325.8"/>
<polygon fill="#000000" points="286.7,298.828 286.7,305.828 279.7,302.328"/>
<polygon fill="#000000" points="301.58,250.4 301.58,257.4 294.58,253.9"/>
<polygon fill="#000000" points="316.46,216.676 316.46,223.676 309.46,220.176"/>
<polygon fill="#000000" points="331.34,148.553 331.34,155.553 324.34,152.053"/>
<polygon fill="#000000" points="346.22,212.764 346.22,219.764 339.22,216.264"/>
<polygon fill="#000000" points="361.1,197.116 361.1,204.116 354.1,200.616"/>
<polygon fill="#000000" points="375.98,192.934 375.98,199.934 368.98,196.434"/>
<polygon fill="#000000" points="390.86,118.876 390.86,125.876 383.86,122.376"/>
<polygon fill="#000000" points="405.74,130.612 405.74,137.612 398.74,134.112"/>
<polygon fill="#000000" points="420.62,84.3425 420.62,91.3425 413.62,87.8425"/>
<polygon fill="#000000" points="435.5,56.9585 435.5,63.9585 428.5,60.4585"/>
<polygon fill="#000000" points="450.38,114.925 450.38,121.925 443.38,118.425"/>
<polygon fill="#000000" points="465.26,88.1196 465.26,95.1196 458.26,91.6196"/>
<polygon fill="#000000" points="220.18,387.98 227.18,387.98 220.18,380.98"/>
<polygon fill="#000000" points="227.18,387.98 227.18,380.98 220.18,380.98"/>
<polygon fill="#000000" points="235.06,387.98 242.06,387.98 235.06,380.98"/>
<polygon fill="#000000" points="242.06,387.98 242.06,380.98 235.06,380.98"/>
<polygon fill="#000000" points="249.94,320.127 256.94,320.127 249.94,313.127"/>
<polygon fill="#000000" points="256.94,320.127 256.94,313.127 249.94,313.127"/>
<polygon fill="#000000" points="264.82,238.245 271.82,238.245 264.82,231.245"/>
<polygon fill="#000000" points="271.82,238.245 271.82,231.245 264.82,231.245"/>
<polygon fill="#000000" points="279.7,174.978 286.7,174.978 279.7,167.978"/>
<polygon fill="#000000" points="286.7,174.978 286.7,167.978 279.7,167.978"/>
<polygon fill="#000000" points="294.58,35.9 301.58,35.9 294.58,28.9"/>
<polygon fill="#000000" points="301.58,35.9 301.58,28.9 294.58,28.9"/>
<polygon fill="#000000" points="309.46,39.812 316.46,39.812 309.46,32.812"/>
<polygon fill="#000000" points="316.46,39.812 316.46,32.812 309.46,32.812"/>
<polygon fill="#000000" points="324.34,35.9 331.34,35.9 324.34,28.9"/>
<polygon fill="#000000" points="331.34,35.9 331.34,28.9 324.34,28.9"/>
</g>
</g>
</svg>
