<?xml version="1.0" encoding="UTF-8" standalone="no"?>
<svg xmlns="http://www.w3.org/2000/svg"
     xmlns:xlink="http://www.w3.org/1999/xlink"
     width="576px" height="432px" viewBox="0 0 576 432">
<title>gl2ps_renderer figure</title>
<desc>
Creator: GL2PS 1.3.8, (C) 1999-2012 C. Geuzaine
For: Octave
CreationDate: Tue Aug 29 14:32:20 2017
</desc>
<defs>
</defs>
<polygon fill="#ffffff" points="0,0 576,0 576,432 0,432"/>
<g shape-rendering="crispEdges">
<polygon fill="#ffffff" points="0,432 576,432 576,0 0,0"/>
<clipPath id="cp00576432">
  <polygon points="0,432 576,432 576,0 0,0"/>
</clipPath>
<g clip-path="url(#cp00576432)">
<text fill="#262626" x="90.5432" y="319.058" font-size="10" text-anchor="middle" baseline-shift="-10" font-family="Helvetica">0</text>
<text fill="#262626" x="168.859" y="319.058" font-size="10" text-anchor="middle" baseline-shift="-10" font-family="Helvetica">0.2</text>
<text fill="#262626" x="247.175" y="319.058" font-size="10" text-anchor="middle" baseline-shift="-10" font-family="Helvetica">0.4</text>
<text fill="#262626" x="325.491" y="319.058" font-size="10" text-anchor="middle" baseline-shift="-10" font-family="Helvetica">0.6</text>
<text fill="#262626" x="403.806" y="319.058" font-size="10" text-anchor="middle" baseline-shift="-10" font-family="Helvetica">0.8</text>
<text fill="#262626" x="482.122" y="319.058" font-size="10" text-anchor="middle" baseline-shift="-10" font-family="Helvetica">1</text>
<polyline fill="none" stroke="#262626" stroke-width="0.5" points="74.88,314.064 79.348,314.064"/>
<polyline fill="none" stroke="#262626" stroke-width="0.5" points="74.88,32.4 79.348,32.4"/>
<text fill="#262626" x="69.8755" y="314.064" font-size="10" text-anchor="end" baseline-shift="-5" font-family="Helvetica">0.5</text>
<text fill="#262626" x="69.8755" y="267.12" font-size="10" text-anchor="end" baseline-shift="-5" font-family="Helvetica">0.6</text>
<text fill="#262626" x="69.8755" y="220.176" font-size="10" text-anchor="end" baseline-shift="-5" font-family="Helvetica">0.7</text>
<text fill="#262626" x="69.8755" y="173.232" font-size="10" text-anchor="end" baseline-shift="-5" font-family="Helvetica">0.8</text>
<text fill="#262626" x="69.8755" y="126.288" font-size="10" text-anchor="end" baseline-shift="-5" font-family="Helvetica">0.9</text>
<text fill="#262626" x="69.8755" y="79.344" font-size="10" text-anchor="end" baseline-shift="-5" font-family="Helvetica">1</text>
<text fill="#262626" x="69.8755" y="32.4" font-size="10" text-anchor="end" baseline-shift="-5" font-family="Helvetica">1.1</text>
<polyline fill="none" stroke="#262626" stroke-width="0.5" stroke-dasharray="16,0" points="74.88,314.064 521.28,314.064"/>
<polyline fill="none" stroke="#262626" stroke-width="0.5" stroke-dasharray="16,0" points="74.88,314.064 74.88,32.4"/>
<text fill="#262626" x="298.08" y="332.058" font-size="16" text-anchor="middle" baseline-shift="-16" font-family="Helvetica">% total acumulated Timeout per sessions</text>
<text fill="#262626" x="50.8755" y="173.232" font-size="16" transform="rotate(-90, 50.8755, 173.232)" text-anchor="middle" baseline-shift="0" font-family="Helvetica">% of total Reward</text>
<polyline fill="none" stroke="#000000" stroke-width="2" points="175.624,77.4075 175.624,81.2805 179.497,81.2805 179.497,77.4075 175.624,77.4075"/>
<polyline fill="none" stroke="#000000" stroke-width="2" points="219.133,194.768 219.133,198.64 223.006,198.64 223.006,194.768 219.133,194.768"/>
<polyline fill="none" stroke="#000000" stroke-width="2" points="262.642,296.479 262.642,300.352 266.515,300.352 266.515,296.479 262.642,296.479"/>
<polyline fill="none" stroke="#000000" stroke-width="2" points="233.636,233.888 233.636,237.76 237.509,237.76 237.509,233.888 233.636,233.888"/>
<polyline fill="none" stroke="#000000" stroke-width="2" points="146.618,77.4075 146.618,81.2805 150.491,81.2805 150.491,77.4075 146.618,77.4075"/>
<polyline fill="none" stroke="#000000" stroke-width="2" points="132.115,77.4075 132.115,81.2805 135.988,81.2805 135.988,77.4075 132.115,77.4075"/>
<text fill="#000000" x="138.403" y="55.872" font-size="10" text-anchor="start" baseline-shift="-5" font-family="Helvetica">switch CD</text>
<text fill="#000000" x="181.912" y="173.232" font-size="10" text-anchor="start" baseline-shift="-5" font-family="Helvetica">switch CCDD</text>
<text fill="#000000" x="225.42" y="274.944" font-size="10" text-anchor="start" baseline-shift="-5" font-family="Helvetica">half C</text>
<text fill="#000000" x="196.414" y="212.352" font-size="10" text-anchor="start" baseline-shift="-5" font-family="Helvetica">switch 3Cx3D</text>
<text fill="#000000" x="140.723" y="55.872" font-size="10" text-anchor="start" baseline-shift="-5" font-family="Helvetica">switch CCD</text>
<text fill="#000000" x="75.3151" y="55.872" font-size="10" text-anchor="start" baseline-shift="-5" font-family="Helvetica">switch CCCD</text>
<text fill="#000000" x="138.403" y="65.2608" font-size="10" text-anchor="start" baseline-shift="-5" font-family="Helvetica">coop 0.5</text>
<text fill="#000000" x="181.912" y="182.621" font-size="10" text-anchor="start" baseline-shift="-5" font-family="Helvetica">coop 0.5</text>
<text fill="#000000" x="225.42" y="284.333" font-size="10" text-anchor="start" baseline-shift="-5" font-family="Helvetica">coop 0.5</text>
<text fill="#000000" x="196.414" y="221.741" font-size="10" text-anchor="start" baseline-shift="-5" font-family="Helvetica">coop 0.5</text>
<text fill="#000000" x="140.723" y="65.2608" font-size="10" text-anchor="start" baseline-shift="-5" font-family="Helvetica">coop 0.66%</text>
<text fill="#000000" x="75.3151" y="65.2608" font-size="10" text-anchor="start" baseline-shift="-5" font-family="Helvetica">coop 0.75%</text>
<text fill="#000000" x="129.701" y="407.952" font-size="16" text-anchor="start" baseline-shift="-8" font-family="Helvetica">Normalized amoung of C choice</text>
<polygon fill="#ffffff" points="74.88,314.064 521.28,314.064 74.88,32.4"/>
<polygon fill="#ffffff" points="521.28,314.064 521.28,32.4 74.88,32.4"/>
<polygon fill="#00008f" points="237.956,254.274 237.12,256.104 238.243,252.281"/>
<polygon fill="#00008f" points="237.12,256.104 235.802,257.625 238.243,252.281"/>
<polygon fill="#00008f" points="235.802,257.625 234.109,258.713 238.243,252.281"/>
<polygon fill="#00008f" points="234.109,258.713 232.178,259.28 238.243,252.281"/>
<polygon fill="#00008f" points="232.178,259.28 230.165,259.28 238.243,252.281"/>
<polygon fill="#00008f" points="230.165,259.28 228.234,258.713 238.243,252.281"/>
<polygon fill="#00008f" points="228.234,258.713 226.541,257.625 238.243,252.281"/>
<polygon fill="#00008f" points="226.541,257.625 225.223,256.104 238.243,252.281"/>
<polygon fill="#00008f" points="225.223,256.104 224.387,254.274 238.243,252.281"/>
<polygon fill="#00008f" points="224.387,254.274 224.1,252.281 238.243,252.281"/>
<polygon fill="#00008f" points="224.1,252.281 224.387,250.289 238.243,252.281"/>
<polygon fill="#00008f" points="224.387,250.289 225.223,248.458 238.243,252.281"/>
<polygon fill="#00008f" points="225.223,248.458 226.541,246.937 238.243,252.281"/>
<polygon fill="#00008f" points="226.541,246.937 228.234,245.849 238.243,252.281"/>
<polygon fill="#00008f" points="228.234,245.849 230.165,245.282 238.243,252.281"/>
<polygon fill="#00008f" points="230.165,245.282 232.178,245.282 238.243,252.281"/>
<polygon fill="#00008f" points="232.178,245.282 234.109,245.849 238.243,252.281"/>
<polygon fill="#00008f" points="234.109,245.849 235.802,246.937 238.243,252.281"/>
<polygon fill="#00008f" points="235.802,246.937 237.12,248.458 238.243,252.281"/>
<polygon fill="#00008f" points="237.12,248.458 237.956,250.289 238.243,252.281"/>
<polygon fill="#00008f" points="237.956,250.289 238.243,252.281 238.243,252.281"/>
<polygon fill="#0000af" points="240.557,229.183 239.721,231.014 240.843,227.191"/>
<polygon fill="#0000af" points="239.721,231.014 238.403,232.535 240.843,227.191"/>
<polygon fill="#0000af" points="238.403,232.535 236.709,233.623 240.843,227.191"/>
<polygon fill="#0000af" points="236.709,233.623 234.778,234.19 240.843,227.191"/>
<polygon fill="#0000af" points="234.778,234.19 232.766,234.19 240.843,227.191"/>
<polygon fill="#0000af" points="232.766,234.19 230.835,233.623 240.843,227.191"/>
<polygon fill="#0000af" points="230.835,233.623 229.141,232.535 240.843,227.191"/>
<polygon fill="#0000af" points="229.141,232.535 227.823,231.014 240.843,227.191"/>
<polygon fill="#0000af" points="227.823,231.014 226.987,229.183 240.843,227.191"/>
<polygon fill="#0000af" points="226.987,229.183 226.701,227.191 240.843,227.191"/>
<polygon fill="#0000af" points="226.701,227.191 226.987,225.198 240.843,227.191"/>
<polygon fill="#0000af" points="226.987,225.198 227.823,223.368 240.843,227.191"/>
<polygon fill="#0000af" points="227.823,223.368 229.141,221.847 240.843,227.191"/>
<polygon fill="#0000af" points="229.141,221.847 230.835,220.759 240.843,227.191"/>
<polygon fill="#0000af" points="230.835,220.759 232.766,220.192 240.843,227.191"/>
<polygon fill="#0000af" points="232.766,220.192 234.778,220.192 240.843,227.191"/>
<polygon fill="#0000af" points="234.778,220.192 236.709,220.759 240.843,227.191"/>
<polygon fill="#0000af" points="236.709,220.759 238.403,221.847 240.843,227.191"/>
<polygon fill="#0000af" points="238.403,221.847 239.721,223.368 240.843,227.191"/>
<polygon fill="#0000af" points="239.721,223.368 240.557,225.198 240.843,227.191"/>
<polygon fill="#0000af" points="240.557,225.198 240.843,227.191 240.843,227.191"/>
<polygon fill="#0000ff" points="224.833,214.938 223.997,216.768 225.12,212.946"/>
<polygon fill="#0000ff" points="223.997,216.768 222.679,218.289 225.12,212.946"/>
<polygon fill="#0000ff" points="222.679,218.289 220.986,219.378 225.12,212.946"/>
<polygon fill="#0000ff" points="220.986,219.378 219.055,219.945 225.12,212.946"/>
<polygon fill="#0000ff" points="219.055,219.945 217.043,219.945 225.12,212.946"/>
<polygon fill="#0000ff" points="217.043,219.945 215.111,219.378 225.12,212.946"/>
<polygon fill="#0000ff" points="215.111,219.378 213.418,218.289 225.12,212.946"/>
<polygon fill="#0000ff" points="213.418,218.289 212.1,216.768 225.12,212.946"/>
<polygon fill="#0000ff" points="212.1,216.768 211.264,214.938 225.12,212.946"/>
<polygon fill="#0000ff" points="211.264,214.938 210.978,212.946 225.12,212.946"/>
<polygon fill="#0000ff" points="210.978,212.946 211.264,210.953 225.12,212.946"/>
<polygon fill="#0000ff" points="211.264,210.953 212.1,209.123 225.12,212.946"/>
<polygon fill="#0000ff" points="212.1,209.123 213.418,207.602 225.12,212.946"/>
<polygon fill="#0000ff" points="213.418,207.602 215.111,206.513 225.12,212.946"/>
<polygon fill="#0000ff" points="215.111,206.513 217.043,205.946 225.12,212.946"/>
<polygon fill="#0000ff" points="217.043,205.946 219.055,205.946 225.12,212.946"/>
<polygon fill="#0000ff" points="219.055,205.946 220.986,206.513 225.12,212.946"/>
<polygon fill="#0000ff" points="220.986,206.513 222.679,207.602 225.12,212.946"/>
<polygon fill="#0000ff" points="222.679,207.602 223.997,209.123 225.12,212.946"/>
<polygon fill="#0000ff" points="223.997,209.123 224.833,210.953 225.12,212.946"/>
<polygon fill="#0000ff" points="224.833,210.953 225.12,212.946 225.12,212.946"/>
<polygon fill="#0000bf" points="236.836,205.441 236,207.272 237.122,203.449"/>
<polygon fill="#0000bf" points="236,207.272 234.682,208.793 237.122,203.449"/>
<polygon fill="#0000bf" points="234.682,208.793 232.989,209.881 237.122,203.449"/>
<polygon fill="#0000bf" points="232.989,209.881 231.058,210.448 237.122,203.449"/>
<polygon fill="#0000bf" points="231.058,210.448 229.045,210.448 237.122,203.449"/>
<polygon fill="#0000bf" points="229.045,210.448 227.114,209.881 237.122,203.449"/>
<polygon fill="#0000bf" points="227.114,209.881 225.421,208.793 237.122,203.449"/>
<polygon fill="#0000bf" points="225.421,208.793 224.103,207.272 237.122,203.449"/>
<polygon fill="#0000bf" points="224.103,207.272 223.267,205.441 237.122,203.449"/>
<polygon fill="#0000bf" points="223.267,205.441 222.98,203.449 237.122,203.449"/>
<polygon fill="#0000bf" points="222.98,203.449 223.267,201.457 237.122,203.449"/>
<polygon fill="#0000bf" points="223.267,201.457 224.103,199.626 237.122,203.449"/>
<polygon fill="#0000bf" points="224.103,199.626 225.421,198.105 237.122,203.449"/>
<polygon fill="#0000bf" points="225.421,198.105 227.114,197.017 237.122,203.449"/>
<polygon fill="#0000bf" points="227.114,197.017 229.045,196.45 237.122,203.449"/>
<polygon fill="#0000bf" points="229.045,196.45 231.058,196.45 237.122,203.449"/>
<polygon fill="#0000bf" points="231.058,196.45 232.989,197.017 237.122,203.449"/>
<polygon fill="#0000bf" points="232.989,197.017 234.682,198.105 237.122,203.449"/>
<polygon fill="#0000bf" points="234.682,198.105 236,199.626 237.122,203.449"/>
<polygon fill="#0000bf" points="236,199.626 236.836,201.457 237.122,203.449"/>
<polygon fill="#0000bf" points="236.836,201.457 237.122,203.449 237.122,203.449"/>
<polygon fill="#6fff8f" points="186.666,136.104 185.83,137.935 186.952,134.112"/>
<polygon fill="#6fff8f" points="185.83,137.935 184.512,139.456 186.952,134.112"/>
<polygon fill="#6fff8f" points="184.512,139.456 182.819,140.544 186.952,134.112"/>
<polygon fill="#6fff8f" points="182.819,140.544 180.887,141.111 186.952,134.112"/>
<polygon fill="#6fff8f" points="180.887,141.111 178.875,141.111 186.952,134.112"/>
<polygon fill="#6fff8f" points="178.875,141.111 176.944,140.544 186.952,134.112"/>
<polygon fill="#6fff8f" points="176.944,140.544 175.251,139.456 186.952,134.112"/>
<polygon fill="#6fff8f" points="175.251,139.456 173.933,137.935 186.952,134.112"/>
<polygon fill="#6fff8f" points="173.933,137.935 173.097,136.104 186.952,134.112"/>
<polygon fill="#6fff8f" points="173.097,136.104 172.81,134.112 186.952,134.112"/>
<polygon fill="#6fff8f" points="172.81,134.112 173.097,132.12 186.952,134.112"/>
<polygon fill="#6fff8f" points="173.097,132.12 173.933,130.289 186.952,134.112"/>
<polygon fill="#6fff8f" points="173.933,130.289 175.251,128.768 186.952,134.112"/>
<polygon fill="#6fff8f" points="175.251,128.768 176.944,127.68 186.952,134.112"/>
<polygon fill="#6fff8f" points="176.944,127.68 178.875,127.113 186.952,134.112"/>
<polygon fill="#6fff8f" points="178.875,127.113 180.887,127.113 186.952,134.112"/>
<polygon fill="#6fff8f" points="180.887,127.113 182.819,127.68 186.952,134.112"/>
<polygon fill="#6fff8f" points="182.819,127.68 184.512,128.768 186.952,134.112"/>
<polygon fill="#6fff8f" points="184.512,128.768 185.83,130.289 186.952,134.112"/>
<polygon fill="#6fff8f" points="185.83,130.289 186.666,132.12 186.952,134.112"/>
<polygon fill="#6fff8f" points="186.666,132.12 186.952,134.112 186.952,134.112"/>
<polygon fill="#efff0f" points="163.781,111.175 162.945,113.006 164.068,109.183"/>
<polygon fill="#efff0f" points="162.945,113.006 161.627,114.527 164.068,109.183"/>
<polygon fill="#efff0f" points="161.627,114.527 159.934,115.615 164.068,109.183"/>
<polygon fill="#efff0f" points="159.934,115.615 158.003,116.182 164.068,109.183"/>
<polygon fill="#efff0f" points="158.003,116.182 155.99,116.182 164.068,109.183"/>
<polygon fill="#efff0f" points="155.99,116.182 154.059,115.615 164.068,109.183"/>
<polygon fill="#efff0f" points="154.059,115.615 152.366,114.527 164.068,109.183"/>
<polygon fill="#efff0f" points="152.366,114.527 151.048,113.006 164.068,109.183"/>
<polygon fill="#efff0f" points="151.048,113.006 150.212,111.175 164.068,109.183"/>
<polygon fill="#efff0f" points="150.212,111.175 149.925,109.183 164.068,109.183"/>
<polygon fill="#efff0f" points="149.925,109.183 150.212,107.191 164.068,109.183"/>
<polygon fill="#efff0f" points="150.212,107.191 151.048,105.36 164.068,109.183"/>
<polygon fill="#efff0f" points="151.048,105.36 152.366,103.839 164.068,109.183"/>
<polygon fill="#efff0f" points="152.366,103.839 154.059,102.751 164.068,109.183"/>
<polygon fill="#efff0f" points="154.059,102.751 155.99,102.184 164.068,109.183"/>
<polygon fill="#efff0f" points="155.99,102.184 158.003,102.184 164.068,109.183"/>
<polygon fill="#efff0f" points="158.003,102.184 159.934,102.751 164.068,109.183"/>
<polygon fill="#efff0f" points="159.934,102.751 161.627,103.839 164.068,109.183"/>
<polygon fill="#efff0f" points="161.627,103.839 162.945,105.36 164.068,109.183"/>
<polygon fill="#efff0f" points="162.945,105.36 163.781,107.191 164.068,109.183"/>
<polygon fill="#efff0f" points="163.781,107.191 164.068,109.183 164.068,109.183"/>
<polygon fill="#afff4f" points="180.485,104.808 179.648,106.639 180.771,102.816"/>
<polygon fill="#afff4f" points="179.648,106.639 178.33,108.16 180.771,102.816"/>
<polygon fill="#afff4f" points="178.33,108.16 176.637,109.248 180.771,102.816"/>
<polygon fill="#afff4f" points="176.637,109.248 174.706,109.815 180.771,102.816"/>
<polygon fill="#afff4f" points="174.706,109.815 172.694,109.815 180.771,102.816"/>
<polygon fill="#afff4f" points="172.694,109.815 170.762,109.248 180.771,102.816"/>
<polygon fill="#afff4f" points="170.762,109.248 169.069,108.16 180.771,102.816"/>
<polygon fill="#afff4f" points="169.069,108.16 167.751,106.639 180.771,102.816"/>
<polygon fill="#afff4f" points="167.751,106.639 166.915,104.808 180.771,102.816"/>
<polygon fill="#afff4f" points="166.915,104.808 166.629,102.816 180.771,102.816"/>
<polygon fill="#afff4f" points="166.629,102.816 166.915,100.824 180.771,102.816"/>
<polygon fill="#afff4f" points="166.915,100.824 167.751,98.9931 180.771,102.816"/>
<polygon fill="#afff4f" points="167.751,98.9931 169.069,97.472 180.771,102.816"/>
<polygon fill="#afff4f" points="169.069,97.472 170.762,96.3839 180.771,102.816"/>
<polygon fill="#afff4f" points="170.762,96.3839 172.694,95.8169 180.771,102.816"/>
<polygon fill="#afff4f" points="172.694,95.8169 174.706,95.8169 180.771,102.816"/>
<polygon fill="#afff4f" points="174.706,95.8169 176.637,96.3839 180.771,102.816"/>
<polygon fill="#afff4f" points="176.637,96.3839 178.33,97.472 180.771,102.816"/>
<polygon fill="#afff4f" points="178.33,97.472 179.648,98.9931 180.771,102.816"/>
<polygon fill="#afff4f" points="179.648,98.9931 180.485,100.824 180.771,102.816"/>
<polygon fill="#afff4f" points="180.485,100.824 180.771,102.816 180.771,102.816"/>
<polygon fill="#ff5f00" points="140.136,95.7971 139.3,97.6278 140.423,93.8049"/>
<polygon fill="#ff5f00" points="139.3,97.6278 137.982,99.1489 140.423,93.8049"/>
<polygon fill="#ff5f00" points="137.982,99.1489 136.289,100.237 140.423,93.8049"/>
<polygon fill="#ff5f00" points="136.289,100.237 134.358,100.804 140.423,93.8049"/>
<polygon fill="#ff5f00" points="134.358,100.804 132.345,100.804 140.423,93.8049"/>
<polygon fill="#ff5f00" points="132.345,100.804 130.414,100.237 140.423,93.8049"/>
<polygon fill="#ff5f00" points="130.414,100.237 128.721,99.1489 140.423,93.8049"/>
<polygon fill="#ff5f00" points="128.721,99.1489 127.403,97.6278 140.423,93.8049"/>
<polygon fill="#ff5f00" points="127.403,97.6278 126.567,95.7971 140.423,93.8049"/>
<polygon fill="#ff5f00" points="126.567,95.7971 126.281,93.8049 140.423,93.8049"/>
<polygon fill="#ff5f00" points="126.281,93.8049 126.567,91.8127 140.423,93.8049"/>
<polygon fill="#ff5f00" points="126.567,91.8127 127.403,89.982 140.423,93.8049"/>
<polygon fill="#ff5f00" points="127.403,89.982 128.721,88.4609 140.423,93.8049"/>
<polygon fill="#ff5f00" points="128.721,88.4609 130.414,87.3728 140.423,93.8049"/>
<polygon fill="#ff5f00" points="130.414,87.3728 132.345,86.8058 140.423,93.8049"/>
<polygon fill="#ff5f00" points="132.345,86.8058 134.358,86.8058 140.423,93.8049"/>
<polygon fill="#ff5f00" points="134.358,86.8058 136.289,87.3728 140.423,93.8049"/>
<polygon fill="#ff5f00" points="136.289,87.3728 137.982,88.4609 140.423,93.8049"/>
<polygon fill="#ff5f00" points="137.982,88.4609 139.3,89.982 140.423,93.8049"/>
<polygon fill="#ff5f00" points="139.3,89.982 140.136,91.8127 140.423,93.8049"/>
<polygon fill="#ff5f00" points="140.136,91.8127 140.423,93.8049 140.423,93.8049"/>
<polygon fill="#ff2f00" points="132.715,92.2897 131.879,94.1205 133.001,90.2976"/>
<polygon fill="#ff2f00" points="131.879,94.1205 130.561,95.6415 133.001,90.2976"/>
<polygon fill="#ff2f00" points="130.561,95.6415 128.868,96.7297 133.001,90.2976"/>
<polygon fill="#ff2f00" points="128.868,96.7297 126.937,97.2967 133.001,90.2976"/>
<polygon fill="#ff2f00" points="126.937,97.2967 124.924,97.2967 133.001,90.2976"/>
<polygon fill="#ff2f00" points="124.924,97.2967 122.993,96.7297 133.001,90.2976"/>
<polygon fill="#ff2f00" points="122.993,96.7297 121.3,95.6415 133.001,90.2976"/>
<polygon fill="#ff2f00" points="121.3,95.6415 119.982,94.1205 133.001,90.2976"/>
<polygon fill="#ff2f00" points="119.982,94.1205 119.146,92.2897 133.001,90.2976"/>
<polygon fill="#ff2f00" points="119.146,92.2897 118.859,90.2976 133.001,90.2976"/>
<polygon fill="#ff2f00" points="118.859,90.2976 119.146,88.3055 133.001,90.2976"/>
<polygon fill="#ff2f00" points="119.146,88.3055 119.982,86.4747 133.001,90.2976"/>
<polygon fill="#ff2f00" points="119.982,86.4747 121.3,84.9536 133.001,90.2976"/>
<polygon fill="#ff2f00" points="121.3,84.9536 122.993,83.8655 133.001,90.2976"/>
<polygon fill="#ff2f00" points="122.993,83.8655 124.924,83.2985 133.001,90.2976"/>
<polygon fill="#ff2f00" points="124.924,83.2985 126.937,83.2985 133.001,90.2976"/>
<polygon fill="#ff2f00" points="126.937,83.2985 128.868,83.8655 133.001,90.2976"/>
<polygon fill="#ff2f00" points="128.868,83.8655 130.561,84.9536 133.001,90.2976"/>
<polygon fill="#ff2f00" points="130.561,84.9536 131.879,86.4747 133.001,90.2976"/>
<polygon fill="#ff2f00" points="131.879,86.4747 132.715,88.3055 133.001,90.2976"/>
<polygon fill="#ff2f00" points="132.715,88.3055 133.001,90.2976 133.001,90.2976"/>
<polygon fill="#af0000" points="108.45,82.9549 107.614,84.7857 108.736,80.9628"/>
<polygon fill="#af0000" points="107.614,84.7857 106.296,86.3067 108.736,80.9628"/>
<polygon fill="#af0000" points="106.296,86.3067 104.603,87.3948 108.736,80.9628"/>
<polygon fill="#af0000" points="104.603,87.3948 102.672,87.9619 108.736,80.9628"/>
<polygon fill="#af0000" points="102.672,87.9619 100.659,87.9619 108.736,80.9628"/>
<polygon fill="#af0000" points="100.659,87.9619 98.728,87.3948 108.736,80.9628"/>
<polygon fill="#af0000" points="98.728,87.3948 97.0348,86.3067 108.736,80.9628"/>
<polygon fill="#af0000" points="97.0348,86.3067 95.7168,84.7857 108.736,80.9628"/>
<polygon fill="#af0000" points="95.7168,84.7857 94.8807,82.9549 108.736,80.9628"/>
<polygon fill="#af0000" points="94.8807,82.9549 94.5943,80.9628 108.736,80.9628"/>
<polygon fill="#af0000" points="94.5943,80.9628 94.8807,78.9706 108.736,80.9628"/>
<polygon fill="#af0000" points="94.8807,78.9706 95.7168,77.1399 108.736,80.9628"/>
<polygon fill="#af0000" points="95.7168,77.1399 97.0348,75.6188 108.736,80.9628"/>
<polygon fill="#af0000" points="97.0348,75.6188 98.728,74.5307 108.736,80.9628"/>
<polygon fill="#af0000" points="98.728,74.5307 100.659,73.9637 108.736,80.9628"/>
<polygon fill="#af0000" points="100.659,73.9637 102.672,73.9637 108.736,80.9628"/>
<polygon fill="#af0000" points="102.672,73.9637 104.603,74.5307 108.736,80.9628"/>
<polygon fill="#af0000" points="104.603,74.5307 106.296,75.6188 108.736,80.9628"/>
<polygon fill="#af0000" points="106.296,75.6188 107.614,77.1399 108.736,80.9628"/>
<polygon fill="#af0000" points="107.614,77.1399 108.45,78.9706 108.736,80.9628"/>
<polygon fill="#af0000" points="108.45,78.9706 108.736,80.9628 108.736,80.9628"/>
<polygon fill="#7f0000" points="98.528,81.3362 97.692,83.1669 98.8145,79.344"/>
<polygon fill="#7f0000" points="97.692,83.1669 96.374,84.688 98.8145,79.344"/>
<polygon fill="#7f0000" points="96.374,84.688 94.6808,85.7761 98.8145,79.344"/>
<polygon fill="#7f0000" points="94.6808,85.7761 92.7497,86.3431 98.8145,79.344"/>
<polygon fill="#7f0000" points="92.7497,86.3431 90.7371,86.3431 98.8145,79.344"/>
<polygon fill="#7f0000" points="90.7371,86.3431 88.806,85.7761 98.8145,79.344"/>
<polygon fill="#7f0000" points="88.806,85.7761 87.1128,84.688 98.8145,79.344"/>
<polygon fill="#7f0000" points="87.1128,84.688 85.7948,83.1669 98.8145,79.344"/>
<polygon fill="#7f0000" points="85.7948,83.1669 84.9588,81.3362 98.8145,79.344"/>
<polygon fill="#7f0000" points="84.9588,81.3362 84.6723,79.344 98.8145,79.344"/>
<polygon fill="#7f0000" points="84.6723,79.344 84.9588,77.3519 98.8145,79.344"/>
<polygon fill="#7f0000" points="84.9588,77.3519 85.7948,75.5211 98.8145,79.344"/>
<polygon fill="#7f0000" points="85.7948,75.5211 87.1128,74.0001 98.8145,79.344"/>
<polygon fill="#7f0000" points="87.1128,74.0001 88.806,72.9119 98.8145,79.344"/>
<polygon fill="#7f0000" points="88.806,72.9119 90.7371,72.3449 98.8145,79.344"/>
<polygon fill="#7f0000" points="90.7371,72.3449 92.7497,72.3449 98.8145,79.344"/>
<polygon fill="#7f0000" points="92.7497,72.3449 94.6808,72.9119 98.8145,79.344"/>
<polygon fill="#7f0000" points="94.6808,72.9119 96.374,74.0001 98.8145,79.344"/>
<polygon fill="#7f0000" points="96.374,74.0001 97.692,75.5211 98.8145,79.344"/>
<polygon fill="#7f0000" points="97.692,75.5211 98.528,77.3519 98.8145,79.344"/>
<polygon fill="#7f0000" points="98.528,77.3519 98.8145,79.344 98.8145,79.344"/>
<polygon fill="#7f0000" points="98.488,81.3362 97.652,83.1669 98.7745,79.344"/>
<polygon fill="#7f0000" points="97.652,83.1669 96.334,84.688 98.7745,79.344"/>
<polygon fill="#7f0000" points="96.334,84.688 94.6408,85.7761 98.7745,79.344"/>
<polygon fill="#7f0000" points="94.6408,85.7761 92.7097,86.3431 98.7745,79.344"/>
<polygon fill="#7f0000" points="92.7097,86.3431 90.6971,86.3431 98.7745,79.344"/>
<polygon fill="#7f0000" points="90.6971,86.3431 88.766,85.7761 98.7745,79.344"/>
<polygon fill="#7f0000" points="88.766,85.7761 87.0728,84.688 98.7745,79.344"/>
<polygon fill="#7f0000" points="87.0728,84.688 85.7548,83.1669 98.7745,79.344"/>
<polygon fill="#7f0000" points="85.7548,83.1669 84.9188,81.3362 98.7745,79.344"/>
<polygon fill="#7f0000" points="84.9188,81.3362 84.6323,79.344 98.7745,79.344"/>
<polygon fill="#7f0000" points="84.6323,79.344 84.9188,77.3519 98.7745,79.344"/>
<polygon fill="#7f0000" points="84.9188,77.3519 85.7548,75.5211 98.7745,79.344"/>
<polygon fill="#7f0000" points="85.7548,75.5211 87.0728,74.0001 98.7745,79.344"/>
<polygon fill="#7f0000" points="87.0728,74.0001 88.766,72.9119 98.7745,79.344"/>
<polygon fill="#7f0000" points="88.766,72.9119 90.6971,72.3449 98.7745,79.344"/>
<polygon fill="#7f0000" points="90.6971,72.3449 92.7097,72.3449 98.7745,79.344"/>
<polygon fill="#7f0000" points="92.7097,72.3449 94.6408,72.9119 98.7745,79.344"/>
<polygon fill="#7f0000" points="94.6408,72.9119 96.334,74.0001 98.7745,79.344"/>
<polygon fill="#7f0000" points="96.334,74.0001 97.652,75.5211 98.7745,79.344"/>
<polygon fill="#7f0000" points="97.652,75.5211 98.488,77.3519 98.7745,79.344"/>
<polygon fill="#7f0000" points="98.488,77.3519 98.7745,79.344 98.7745,79.344"/>
<polygon fill="#5fff9f" points="175.624,81.2805 179.497,81.2805 175.624,77.4075"/>
<polygon fill="#5fff9f" points="179.497,81.2805 179.497,77.4075 175.624,77.4075"/>
<polygon fill="#ef0000" points="219.133,198.64 223.006,198.64 219.133,194.768"/>
<polygon fill="#ef0000" points="223.006,198.64 223.006,194.768 219.133,194.768"/>
<polygon fill="#00009f" points="262.642,300.352 266.515,300.352 262.642,296.479"/>
<polygon fill="#00009f" points="266.515,300.352 266.515,296.479 262.642,296.479"/>
<polygon fill="#2fffcf" points="233.636,237.76 237.509,237.76 233.636,233.888"/>
<polygon fill="#2fffcf" points="237.509,237.76 237.509,233.888 233.636,233.888"/>
<polygon fill="#00ffff" points="146.618,81.2805 150.491,81.2805 146.618,77.4075"/>
<polygon fill="#00ffff" points="150.491,81.2805 150.491,77.4075 146.618,77.4075"/>
<polygon fill="#ff7f00" points="132.115,81.2805 135.988,81.2805 132.115,77.4075"/>
<polygon fill="#ff7f00" points="135.988,81.2805 135.988,77.4075 132.115,77.4075"/>
<text fill="#000000" x="298.08" y="22.4" font-size="16" text-anchor="middle" baseline-shift="0" font-family="Helvetica" font-weight="bold">Reward versus Timeout to eat (colorbar=cooperation)</text>
</g>
<clipPath id="cp00576432">
  <polygon points="0,432 576,432 576,0 0,0"/>
</clipPath>
<g clip-path="url(#cp00576432)">
<polygon fill="#ffffff" points="74.88,384.48 521.28,384.48 74.88,363.355"/>
<polygon fill="#ffffff" points="521.28,384.48 521.28,363.355 74.88,363.355"/>
<polyline fill="none" stroke="#262626" stroke-width="0.5" points="84.8019,384.48 84.8019,379.99"/>
<polyline fill="none" stroke="#262626" stroke-width="0.5" points="84.8019,363.355 84.8019,367.846"/>
<polyline fill="none" stroke="#262626" stroke-width="0.5" points="157.955,384.48 157.955,379.99"/>
<polyline fill="none" stroke="#262626" stroke-width="0.5" points="157.955,363.355 157.955,367.846"/>
<polyline fill="none" stroke="#262626" stroke-width="0.5" points="231.107,384.48 231.107,379.99"/>
<polyline fill="none" stroke="#262626" stroke-width="0.5" points="231.107,363.355 231.107,367.846"/>
<polyline fill="none" stroke="#262626" stroke-width="0.5" points="304.26,384.48 304.26,379.99"/>
<polyline fill="none" stroke="#262626" stroke-width="0.5" points="304.26,363.355 304.26,367.846"/>
<polyline fill="none" stroke="#262626" stroke-width="0.5" points="377.413,384.48 377.413,379.99"/>
<polyline fill="none" stroke="#262626" stroke-width="0.5" points="377.413,363.355 377.413,367.846"/>
<polyline fill="none" stroke="#262626" stroke-width="0.5" points="450.566,384.48 450.566,379.99"/>
<polyline fill="none" stroke="#262626" stroke-width="0.5" points="450.566,363.355 450.566,367.846"/>
<polyline fill="none" stroke="#262626" stroke-width="0.5" stroke-dasharray="16,0" points="74.88,384.48 521.28,384.48"/>
<polyline fill="none" stroke="#262626" stroke-width="0.5" stroke-dasharray="16,0" points="74.88,363.355 521.28,363.355"/>
<polyline fill="none" stroke="#262626" stroke-width="0.5" stroke-dasharray="16,0" points="74.88,384.48 74.88,363.355"/>
<polyline fill="none" stroke="#262626" stroke-width="0.5" stroke-dasharray="16,0" points="521.28,384.48 521.28,363.355"/>
<text fill="#262626" x="84.8018" y="389.51" font-size="10" text-anchor="middle" baseline-shift="-10" font-family="Helvetica">0.4</text>
<text fill="#262626" x="157.955" y="389.51" font-size="10" text-anchor="middle" baseline-shift="-10" font-family="Helvetica">0.5</text>
<text fill="#262626" x="231.107" y="389.51" font-size="10" text-anchor="middle" baseline-shift="-10" font-family="Helvetica">0.6</text>
<text fill="#262626" x="304.26" y="389.51" font-size="10" text-anchor="middle" baseline-shift="-10" font-family="Helvetica">0.7</text>
<text fill="#262626" x="377.413" y="389.51" font-size="10" text-anchor="middle" baseline-shift="-10" font-family="Helvetica">0.8</text>
<text fill="#262626" x="450.566" y="389.51" font-size="10" text-anchor="middle" baseline-shift="-10" font-family="Helvetica">0.9</text>
</g>
</g>
</svg>
